<svg version="1.1" id="Layer_1" xmlns="http://www.w3.org/2000/svg" xmlns:xlink="http://www.w3.org/1999/xlink" x="0px" y="0px"
	 width="100%" viewBox="0 0 223 208" enable-background="new 0 0 223 208" xml:space="preserve">
<path fill="#323654" opacity="1.000000" stroke="none" 
	d="
M115.000000,1.000000 
	C151.234329,1.000000 187.468674,1.000000 224.000000,1.000000 
	C224.000000,18.019743 224.000000,35.041214 223.789581,52.246189 
	C219.404236,45.969563 214.960434,39.663609 211.139542,33.000462 
	C208.087021,27.677250 203.763275,25.274551 197.921661,25.070240 
	C197.960632,25.058123 197.921661,25.129858 197.921387,24.770763 
	C196.974167,23.598253 196.027237,22.784840 194.878891,21.693018 
	C188.501755,16.461903 181.189331,14.559265 173.535202,14.065599 
	C165.407974,13.541420 157.402466,13.875312 149.566925,17.041874 
	C142.243866,20.001326 135.888840,24.052504 130.705582,29.923923 
	C129.971970,30.754938 130.002930,32.260918 129.684937,33.554569 
	C129.689850,33.654652 129.495956,33.705322 129.107849,33.534458 
	C125.211449,33.734287 120.757133,38.503902 121.233536,41.577862 
	C121.644341,44.228588 122.832085,45.298256 125.218605,43.027081 
	C125.878151,43.328278 126.367447,43.430492 126.989113,43.805389 
	C128.254242,44.068302 129.425827,44.244461 130.513138,44.017242 
	C135.798584,42.912689 141.015015,41.394524 146.341354,40.585457 
	C160.049362,38.503227 166.401855,49.114567 168.677322,58.958370 
	C169.807571,63.847855 170.374481,69.655022 165.651306,74.139450 
	C164.207611,77.154869 163.098297,80.071976 161.994492,82.994385 
	C162.000000,82.999695 161.990494,82.990997 161.710327,83.048859 
	C160.960434,83.414581 160.490707,83.722450 160.022125,84.022232 
	C160.023285,84.014160 160.033340,84.039925 159.665771,84.050629 
	C155.036850,84.993988 153.696045,88.234329 153.015991,92.005600 
	C153.008621,92.008614 152.998825,92.021111 152.714066,92.070206 
	C151.947922,92.422813 151.466553,92.726326 150.811188,93.173141 
	C150.414520,93.520210 150.216522,93.745667 149.715485,94.061417 
	C148.582245,95.075798 147.776718,96.021576 146.649170,96.978607 
	C145.897705,97.002312 145.468262,97.014763 144.647247,97.024765 
	C142.162109,98.007050 140.068527,98.991783 137.654861,100.140388 
	C131.902069,101.886551 126.469345,103.468834 120.633659,105.041733 
	C115.780281,105.104889 112.896606,106.927681 112.783630,111.772560 
	C112.629005,118.403336 112.553749,125.036415 112.340256,131.665146 
	C112.253563,134.357025 113.614937,138.388626 107.996292,136.817627 
	C107.532089,136.410919 107.254295,136.193176 106.838104,135.642426 
	C104.571365,135.162781 102.367577,134.599045 100.332375,134.967224 
	C97.277000,135.519989 94.399002,137.166336 91.342010,137.577286 
	C78.905212,139.249084 66.115410,138.077347 62.836037,122.175110 
	C60.903316,112.803024 62.229904,103.434547 69.119202,95.814583 
	C71.170143,93.546127 69.777603,93.119911 67.807190,92.649414 
	C67.863098,92.428528 68.067871,92.021416 68.436279,91.968910 
	C69.246498,90.790359 69.688301,89.664322 70.178360,88.391846 
	C70.226608,88.245399 70.502235,88.107132 70.850983,88.258705 
	C72.550476,87.886467 74.122047,87.646690 75.217751,86.794815 
	C85.920357,78.473961 98.049721,74.385384 111.551346,73.873413 
	C116.150948,73.698990 117.009644,71.336540 116.897301,66.248917 
	C116.630707,54.175251 116.915993,42.089405 117.207031,29.668793 
	C117.290871,25.219809 117.145912,21.110508 116.999748,16.565258 
	C116.986923,14.102168 116.975304,12.075030 116.948738,9.661774 
	C116.289192,6.517103 115.644600,3.758552 115.000000,1.000000 
M113.527504,105.502167 
	C113.527504,105.502167 113.488052,105.516953 113.527504,105.502167 
z"/>
<path fill="#323556" opacity="1.000000" stroke="none" 
	d="
M224.000000,183.000000 
	C224.000000,191.655334 224.000000,200.310669 224.000000,208.983002 
	C149.775192,208.983002 75.550385,208.983002 1.000000,208.983002 
	C1.000000,180.646606 1.000000,152.291962 1.309383,123.577774 
	C2.432988,124.476456 3.247210,125.734688 4.166942,127.346924 
	C4.858868,129.723038 5.090303,131.949799 6.111529,133.721237 
	C7.815855,136.677612 10.025426,139.342728 12.277351,142.303497 
	C13.085142,143.577515 13.637871,144.678482 13.947072,146.037720 
	C13.478961,147.199753 13.254377,148.103531 12.860475,149.246902 
	C14.103717,150.663940 15.516280,151.841400 17.082453,153.212021 
	C17.459726,153.649323 17.709473,153.862946 18.062445,154.382080 
	C18.449089,155.299652 18.709322,155.914429 19.075510,156.457779 
	C24.263613,164.155746 32.394123,167.357681 40.487717,170.822098 
	C51.554451,175.559143 62.295479,175.375397 73.238335,170.157745 
	C74.315811,170.587753 75.146461,170.803528 75.980217,171.390274 
	C75.983376,172.503250 75.983429,173.245255 75.827454,174.165115 
	C75.772720,174.900467 75.874016,175.457962 75.978539,176.482025 
	C75.977150,182.290756 75.972534,187.632935 75.683205,193.075226 
	C75.591980,194.121323 75.785461,195.067322 76.130447,196.260956 
	C76.856956,197.018707 77.431961,197.528839 78.133499,198.387955 
	C79.650879,199.469986 81.025902,200.800110 82.435173,200.837463 
	C90.519020,201.051682 98.991615,202.426300 106.567963,200.460846 
	C111.718834,199.124588 115.648895,200.775085 120.325790,200.917938 
	C120.527382,200.918732 120.930519,200.924622 121.209023,201.143082 
	C123.005730,201.212173 124.523926,201.062805 126.350433,200.910675 
	C127.069809,200.910538 127.480881,200.913132 128.237701,200.996613 
	C130.074402,201.017227 131.565353,200.956970 133.499542,200.905777 
	C136.599915,200.906799 139.257050,200.898758 142.155716,201.075500 
	C144.266373,200.507767 146.135498,199.755234 148.351959,198.879395 
	C149.462387,196.878616 150.903534,194.977661 150.839447,193.128876 
	C150.725861,189.852600 151.785629,188.238403 155.213379,188.181763 
	C155.958054,188.931900 156.485641,189.492157 157.024246,190.373840 
	C157.046890,191.123978 157.058502,191.552658 157.059418,192.356079 
	C158.039215,194.154922 159.029678,195.579041 160.253723,197.143616 
	C161.396164,197.420090 162.305008,197.556122 163.506683,197.696381 
	C164.177094,197.795990 164.554688,197.891388 164.936523,198.244324 
	C164.946533,198.673492 164.952301,198.845108 165.125198,199.371140 
	C166.144760,200.133896 166.997238,200.894882 167.849564,200.894684 
	C174.590332,200.893112 181.388458,201.246597 188.053146,200.481842 
	C193.133850,199.898865 198.425644,198.481079 201.311539,192.925568 
	C203.888000,193.242386 206.126816,193.610077 208.744278,194.039963 
	C209.160797,190.723099 209.582458,187.365219 210.282013,183.841324 
	C211.706604,183.118103 212.853302,182.560867 214.070755,182.357178 
	C215.090363,186.248627 217.263947,186.416183 220.093674,184.908508 
	C221.371887,184.227463 222.696472,183.633484 224.000000,183.000000 
z"/>
<path fill="#323555" opacity="1.000000" stroke="none" 
	d="
M1.000000,98.000000 
	C1.000000,65.742477 1.000000,33.484959 1.000000,1.000000 
	C30.687174,1.000000 60.374928,1.000000 90.376083,1.344901 
	C88.519119,2.155021 86.058266,2.141041 84.264893,3.228168 
	C82.660423,4.200780 80.876038,6.348886 80.804726,8.046949 
	C80.686005,10.874034 82.973183,10.790825 85.484138,10.457289 
	C88.252190,10.089602 91.155182,10.737780 93.642868,11.031211 
	C80.970619,15.255967 69.825386,21.871363 59.285915,29.118261 
	C48.695442,36.400227 38.898804,44.966129 29.453131,53.723179 
	C25.380892,57.498543 23.067619,63.171196 19.636642,68.090881 
	C11.031005,75.256210 7.763040,84.996735 4.799987,95.143372 
	C4.380024,95.498779 4.182306,95.740372 4.015725,96.013214 
	C4.010283,96.014526 4.030631,96.038292 3.765179,96.180618 
	C2.666485,96.881966 1.833243,97.440979 1.000000,98.000000 
z"/>
<path fill="#323656" opacity="1.000000" stroke="none" 
	d="
M224.000000,97.000000 
	C224.000000,122.020897 224.000000,147.041794 223.664841,172.530807 
	C222.882797,172.997726 222.435898,172.996521 221.927155,172.706726 
	C221.545074,171.934540 221.224869,171.450928 220.924225,170.642517 
	C220.950546,169.883713 220.957291,169.449677 220.889801,168.718964 
	C220.215118,167.926056 219.614685,167.429825 218.875641,166.757034 
	C218.538269,166.354691 218.316010,166.155075 217.996246,165.709915 
	C217.616547,164.977570 217.310822,164.516922 216.989609,164.037323 
	C216.974121,164.018372 216.948318,163.976730 216.813812,163.794907 
	C216.480423,163.382904 216.253601,163.184677 215.761414,162.788086 
	C213.359848,160.694519 211.195724,158.831253 208.997070,156.604660 
	C206.936646,152.422241 204.845261,152.345779 201.066254,155.996887 
	C201.016571,156.039322 200.912720,156.118622 200.747589,156.223770 
	C200.376053,156.492752 200.202820,156.686295 199.789780,157.088791 
	C198.035400,158.529892 196.554016,159.791733 194.681793,161.045853 
	C191.495010,160.930435 189.938873,162.129715 189.903336,165.340729 
	C189.198013,166.414215 188.626648,167.220139 187.636627,168.016296 
	C185.832932,167.988159 184.447922,167.969772 183.051666,167.520096 
	C183.028198,166.591064 182.982727,166.091599 183.008957,165.595901 
	C183.229355,161.428879 185.298798,156.875443 178.732849,154.969986 
	C176.210999,154.238159 176.457535,147.639267 178.609985,146.229355 
	C181.901535,144.073318 185.513763,142.313751 188.480515,139.787689 
	C190.463974,138.098862 191.563705,135.372147 193.448914,133.084305 
	C196.216873,131.593292 198.959335,130.493958 200.886124,128.575424 
	C203.684158,125.789413 205.399750,121.742966 208.485870,119.465874 
	C211.919083,116.932678 216.105438,116.930336 215.375931,110.037605 
	C214.952911,106.040756 220.912598,101.368378 224.000000,97.000000 
z"/>
<path fill="#D2BA88" opacity="1.000000" stroke="none" 
	d="
M224.000000,57.000000 
	C224.000000,65.687561 224.000000,74.375130 223.650894,83.322105 
	C222.871170,84.227463 222.340942,84.828384 222.025436,85.526352 
	C219.078262,92.046318 216.167938,98.582939 213.015945,104.956772 
	C212.523041,104.534302 212.261169,104.269798 212.074234,103.660210 
	C218.583618,92.269737 221.758026,80.223030 220.831039,67.602203 
	C220.019730,56.556568 217.009033,45.709267 208.217911,38.033241 
	C201.899216,32.516045 194.737610,27.964226 187.959015,22.656391 
	C187.975266,21.897211 187.984543,21.463402 188.363220,21.063150 
	C190.795990,21.810434 192.859329,22.524160 195.041077,23.534033 
	C196.080185,24.263407 197.000931,24.696632 197.921661,25.129860 
	C197.921661,25.129858 197.960632,25.058123 198.049683,25.384592 
	C207.242935,33.040863 215.813782,40.800896 220.526596,51.917164 
	C221.311859,53.769382 222.823822,55.313511 224.000000,57.000000 
z"/>
<path fill="#3E383D" opacity="1.000000" stroke="none" 
	d="
M213.246964,105.114731 
	C216.167938,98.582939 219.078262,92.046318 222.025436,85.526352 
	C222.340942,84.828384 222.871170,84.227463 223.650894,83.790756 
	C224.000000,88.024544 224.000000,92.049088 224.000000,96.536819 
	C220.912598,101.368378 214.952911,106.040756 215.375931,110.037605 
	C216.105438,116.930336 211.919083,116.932678 208.485870,119.465874 
	C205.399750,121.742966 203.684158,125.789413 200.886124,128.575424 
	C198.959335,130.493958 196.216873,131.593292 193.379517,132.998886 
	C192.920090,132.939041 192.795044,132.757889 192.948853,132.463318 
	C196.242935,128.762604 199.735657,125.612450 202.439545,121.889404 
	C206.342148,116.515816 209.672455,110.726608 213.246964,105.114731 
z"/>
<path fill="#2F3755" opacity="1.000000" stroke="none" 
	d="
M93.999390,10.943441 
	C91.155182,10.737780 88.252190,10.089602 85.484138,10.457289 
	C82.973183,10.790825 80.686005,10.874034 80.804726,8.046949 
	C80.876038,6.348886 82.660423,4.200780 84.264893,3.228168 
	C86.058266,2.141041 88.519119,2.155021 90.844742,1.344901 
	C96.022095,1.000000 101.044182,1.000000 106.472527,1.334027 
	C106.255943,3.118271 105.633110,4.568489 104.740891,6.239412 
	C100.980797,7.954560 97.490097,9.449000 93.999390,10.943441 
z"/>
<path fill="#483E3F" opacity="1.000000" stroke="none" 
	d="
M224.000000,56.600006 
	C222.823822,55.313511 221.311859,53.769382 220.526596,51.917164 
	C215.813782,40.800896 207.242935,33.040863 198.010696,25.396709 
	C203.763275,25.274551 208.087021,27.677250 211.139542,33.000462 
	C214.960434,39.663609 219.404236,45.969563 223.789581,52.714848 
	C224.000000,54.066669 224.000000,55.133339 224.000000,56.600006 
z"/>
<path fill="#38384B" opacity="1.000000" stroke="none" 
	d="
M1.000000,98.468651 
	C1.833243,97.440979 2.666485,96.881966 3.763213,96.571518 
	C3.688257,102.379913 3.111261,107.938667 3.086416,113.499886 
	C3.066329,117.996017 3.711414,122.495125 4.061432,126.992912 
	C3.247210,125.734688 2.432988,124.476456 1.309383,123.109116 
	C1.000000,114.979103 1.000000,106.958199 1.000000,98.468651 
z"/>
<path fill="#36384E" opacity="1.000000" stroke="none" 
	d="
M105.010284,6.018707 
	C105.633110,4.568489 106.255943,3.118271 106.939392,1.334027 
	C109.370560,1.000000 111.741112,1.000000 114.555832,1.000000 
	C115.644600,3.758552 116.289192,6.517103 116.641342,9.600140 
	C115.346413,9.624088 114.343918,9.323552 113.249573,8.668098 
	C112.423927,7.834601 111.690140,7.356023 110.845932,6.591430 
	C108.827095,6.209846 106.918686,6.114277 105.010284,6.018707 
z"/>
<path fill="#33345E" opacity="1.000000" stroke="none" 
	d="
M224.000000,182.666672 
	C222.696472,183.633484 221.371887,184.227463 220.093674,184.908508 
	C217.263947,186.416183 215.090363,186.248627 214.295807,182.140671 
	C215.301956,180.380798 216.153824,179.190964 217.367126,178.022552 
	C219.819046,179.029312 221.909531,180.014664 224.000000,181.000000 
	C224.000000,181.444443 224.000000,181.888901 224.000000,182.666672 
z"/>
<path fill="#323556" opacity="1.000000" stroke="none" 
	d="
M224.000000,180.555832 
	C221.909531,180.014664 219.819046,179.029312 217.536011,177.723007 
	C218.891953,175.933121 220.440491,174.464218 221.989014,172.995300 
	C222.435898,172.996521 222.882797,172.997726 223.664841,172.999466 
	C224.000000,175.370560 224.000000,177.741104 224.000000,180.555832 
z"/>
<path fill="#D1B886" opacity="1.000000" stroke="none" 
	d="
M68.067871,92.021416 
	C68.067871,92.021416 67.863098,92.428528 67.497208,92.780991 
	C59.209225,101.042091 57.323341,110.557594 58.897202,121.378479 
	C60.201824,130.348251 66.440323,138.379898 75.156532,141.026306 
	C83.686813,143.616257 91.625755,141.217911 99.612968,138.498825 
	C101.579666,137.829300 103.855568,138.068100 105.989807,138.291229 
	C106.503876,140.534470 107.017471,142.375824 107.595398,144.416901 
	C107.659737,144.616623 107.892502,144.965805 107.785416,145.427856 
	C107.609665,162.183640 107.541000,178.477356 107.181992,194.923828 
	C106.598701,196.104095 106.305763,197.131622 105.562553,198.179306 
	C102.410011,198.172714 99.707741,198.145950 96.855011,197.937683 
	C96.137527,197.816254 95.570496,197.876358 94.555832,197.895660 
	C91.737900,197.641968 89.367592,197.429092 86.996017,196.943970 
	C86.993011,196.128159 86.991287,195.584610 87.444855,195.029999 
	C90.393547,195.066605 92.912834,194.901489 95.375572,195.201080 
	C103.319359,196.167465 105.052010,194.773758 104.946434,186.488647 
	C104.849251,178.862747 104.250618,171.241394 104.227867,163.616974 
	C104.209076,157.320755 104.746521,151.024307 104.965767,144.725449 
	C105.111618,140.535202 102.985924,139.209183 99.265717,140.802429 
	C91.937447,143.940872 84.455376,145.087265 76.471390,144.079025 
	C70.114868,143.276337 65.371269,140.249466 61.701519,135.317825 
	C55.307056,126.724510 55.191410,116.806961 56.180729,106.779320 
	C56.481026,103.735580 56.666084,100.198036 58.294071,97.850868 
	C65.505302,87.453995 73.517845,77.753448 86.221741,73.579811 
	C89.817123,72.398613 93.402710,71.187599 97.332855,69.989738 
	C98.126305,69.973129 98.579681,69.957047 99.428978,69.943642 
	C100.880524,69.933472 101.936157,69.920616 103.056458,70.294952 
	C103.163437,70.940399 103.205734,71.198662 103.185944,71.612869 
	C103.123840,71.768799 103.033607,72.092140 102.633896,72.083145 
	C96.504929,73.804718 90.775665,75.535278 84.741386,77.300522 
	C83.774864,77.795280 83.113350,78.255371 82.131943,78.797195 
	C78.042122,81.954994 74.272179,85.031067 70.502235,88.107132 
	C70.502235,88.107132 70.226608,88.245399 69.937469,88.559097 
	C69.121506,89.922340 68.594688,90.971878 68.067871,92.021416 
z"/>
<path fill="#3C3840" opacity="1.000000" stroke="none" 
	d="
M107.892502,144.965805 
	C107.892502,144.965805 107.659737,144.616623 107.735168,144.007141 
	C107.926636,142.250458 108.042671,141.103256 108.293198,139.788483 
	C108.341492,139.110306 108.255295,138.599747 108.142799,137.818146 
	C108.138557,137.366943 108.160622,137.186768 108.182693,137.006577 
	C113.614937,138.388626 112.253563,134.357025 112.340256,131.665146 
	C112.553749,125.036415 112.629005,118.403336 112.783630,111.772560 
	C112.896606,106.927681 115.780281,105.104889 120.509186,105.254646 
	C120.353874,106.312805 119.920082,107.148666 119.140831,108.053299 
	C115.038857,108.622910 115.248520,111.469009 115.251205,114.161156 
	C115.273071,136.092834 115.305222,158.024506 115.218773,180.410187 
	C115.193336,184.918457 115.283371,188.972733 115.366684,193.324951 
	C115.387238,194.018921 115.414520,194.414932 115.318314,195.171814 
	C116.127693,196.364243 117.060555,197.195786 118.322998,198.112213 
	C119.093491,198.303711 119.534386,198.410309 119.979706,198.818588 
	C120.030807,199.719223 120.077499,200.318176 120.124191,200.917145 
	C115.648895,200.775085 111.718834,199.124588 106.567963,200.460846 
	C98.991615,202.426300 90.519020,201.051682 82.435173,200.837463 
	C81.025902,200.800110 79.650879,199.469986 78.443771,198.339462 
	C78.833778,197.906128 79.040062,197.870270 79.672295,197.764999 
	C82.397934,197.535797 84.697609,197.376007 86.997292,197.216217 
	C89.367592,197.429092 91.737900,197.641968 94.709290,198.069305 
	C95.875412,198.228897 96.440445,198.174042 97.005470,198.119202 
	C99.707741,198.145950 102.410011,198.172714 105.769058,198.312347 
	C107.001724,197.938766 107.577614,197.452301 108.352448,196.646088 
	C109.028999,193.888626 109.894119,191.454956 109.919617,189.012527 
	C110.056999,175.851425 110.054169,162.687347 109.894630,149.526764 
	C109.876106,147.998581 108.590607,146.485748 107.892502,144.965805 
z"/>
<path fill="#C8B181" opacity="1.000000" stroke="none" 
	d="
M187.993820,21.029591 
	C187.984543,21.463402 187.975266,21.897211 187.535416,22.655876 
	C175.284286,21.182756 163.510574,19.897116 151.629929,22.940907 
	C144.765106,24.699654 140.049408,29.079893 135.360687,34.568722 
	C145.664459,34.356186 155.855057,33.576553 163.921448,41.539139 
	C163.776703,42.239540 163.718750,42.519691 163.317444,42.660389 
	C153.983643,36.361683 144.279373,36.520103 134.398788,39.588272 
	C131.733490,40.415913 129.362701,42.191982 126.856735,43.532703 
	C126.367447,43.430492 125.878151,43.328278 125.229996,42.759315 
	C126.546066,39.430149 128.021011,36.567738 129.495956,33.705322 
	C129.495956,33.705322 129.689850,33.654652 129.974915,33.434650 
	C135.008102,29.680609 139.376175,25.398199 144.577576,22.756712 
	C158.634903,15.617796 173.237610,14.421671 187.993820,21.029591 
z"/>
<path fill="#3C3840" opacity="1.000000" stroke="none" 
	d="
M105.989334,137.889328 
	C103.855568,138.068100 101.579666,137.829300 99.612968,138.498825 
	C91.625755,141.217911 83.686813,143.616257 75.156532,141.026306 
	C66.440323,138.379898 60.201824,130.348251 58.897202,121.378479 
	C57.323341,110.557594 59.209225,101.042091 67.441299,93.001884 
	C69.777603,93.119911 71.170143,93.546127 69.119202,95.814583 
	C62.229904,103.434547 60.903316,112.803024 62.836037,122.175110 
	C66.115410,138.077347 78.905212,139.249084 91.342010,137.577286 
	C94.399002,137.166336 97.277000,135.519989 100.332375,134.967224 
	C102.367577,134.599045 104.571365,135.162781 106.737297,135.894394 
	C106.513039,136.949356 106.251183,137.419342 105.989334,137.889328 
z"/>
<path fill="#453D3B" opacity="1.000000" stroke="none" 
	d="
M70.850983,88.258705 
	C74.272179,85.031067 78.042122,81.954994 82.462387,78.812065 
	C83.757278,78.252090 84.401840,77.758965 85.046402,77.265839 
	C90.775665,75.535278 96.504929,73.804718 102.874222,72.264580 
	C104.687210,72.141335 105.860161,71.827675 107.448685,71.489311 
	C109.247543,71.352081 110.630829,71.239548 112.436691,71.083939 
	C113.099884,64.401588 113.340485,57.762321 113.646164,50.730164 
	C113.645554,49.547256 113.579880,48.757240 113.585922,47.627762 
	C113.378952,46.183796 113.100258,45.079285 112.884888,43.554314 
	C112.898552,41.437809 112.848900,39.741768 112.865410,37.802383 
	C112.961952,37.393688 112.992325,37.228336 113.257507,36.952763 
	C113.378075,36.424229 113.263817,36.005917 113.226898,35.276539 
	C113.240982,34.333412 113.177727,33.701355 113.219101,32.603539 
	C113.206299,25.757193 113.088867,19.376612 113.038406,12.600735 
	C113.184067,11.144632 113.262749,10.083825 113.341431,9.023017 
	C114.343918,9.323552 115.346413,9.624088 116.656296,9.986259 
	C116.975304,12.075030 116.986923,14.102168 116.773682,16.904743 
	C116.691963,21.789614 116.835106,25.899048 116.978241,30.008480 
	C116.915993,42.089405 116.630707,54.175251 116.897301,66.248917 
	C117.009644,71.336540 116.150948,73.698990 111.551346,73.873413 
	C98.049721,74.385384 85.920357,78.473961 75.217751,86.794815 
	C74.122047,87.646690 72.550476,87.886467 70.850983,88.258705 
z"/>
<path fill="#403A3E" opacity="1.000000" stroke="none" 
	d="
M188.363220,21.063150 
	C173.237610,14.421671 158.634903,15.617796 144.577576,22.756712 
	C139.376175,25.398199 135.008102,29.680609 129.970001,33.334568 
	C130.002930,32.260918 129.971970,30.754938 130.705582,29.923923 
	C135.888840,24.052504 142.243866,20.001326 149.566925,17.041874 
	C157.402466,13.875312 165.407974,13.541420 173.535202,14.065599 
	C181.189331,14.559265 188.501755,16.461903 194.835876,22.009384 
	C194.970413,22.815399 194.946548,23.026642 194.922684,23.237886 
	C192.859329,22.524160 190.795990,21.810434 188.363220,21.063150 
z"/>
<path fill="#453B35" opacity="1.000000" stroke="none" 
	d="
M126.989113,43.805389 
	C129.362701,42.191982 131.733490,40.415913 134.398788,39.588272 
	C144.279373,36.520103 153.983643,36.361683 163.439575,42.942558 
	C173.110245,53.723991 174.026337,68.392586 166.121063,78.891258 
	C166.055710,76.980354 166.020691,75.510742 165.985687,74.041130 
	C170.374481,69.655022 169.807571,63.847855 168.677322,58.958370 
	C166.401855,49.114567 160.049362,38.503227 146.341354,40.585457 
	C141.015015,41.394524 135.798584,42.912689 130.513138,44.017242 
	C129.425827,44.244461 128.254242,44.068302 126.989113,43.805389 
z"/>
<path fill="#4B3F38" opacity="1.000000" stroke="none" 
	d="
M119.486298,107.984528 
	C119.920082,107.148666 120.353874,106.312805 120.912140,105.264030 
	C126.469345,103.468834 131.902069,101.886551 138.038422,100.127617 
	C140.840973,98.976387 142.939896,98.001801 145.038818,97.027214 
	C145.468262,97.014763 145.897705,97.002312 147.035416,97.012192 
	C148.256119,97.095367 148.768570,97.156227 149.198807,97.451874 
	C148.967712,97.983170 148.818817,98.279686 148.306915,98.636269 
	C138.859772,103.023331 129.783783,107.375160 119.486298,107.984528 
z"/>
<path fill="#4F453A" opacity="1.000000" stroke="none" 
	d="
M150.043198,93.992798 
	C150.216522,93.745667 150.414520,93.520210 151.097839,93.124306 
	C152.038605,92.628487 152.518723,92.324806 152.998825,92.021118 
	C152.998825,92.021111 153.008621,92.008614 153.304230,91.838058 
	C155.744354,89.124977 157.888840,86.582451 160.033340,84.039925 
	C160.033340,84.039925 160.023285,84.014160 160.303802,83.969437 
	C161.053040,83.613480 161.521759,83.302238 161.990494,82.990997 
	C161.990494,82.990997 162.000000,82.999695 162.259552,82.850624 
	C163.341476,82.127014 164.163849,81.552475 165.081085,81.340927 
	C161.013809,86.404083 156.851669,91.104256 152.411591,95.839645 
	C151.766479,95.937584 151.399292,96.000282 150.901443,95.807533 
	C150.528244,95.032326 150.285721,94.512558 150.043198,93.992798 
z"/>
<path fill="#403A3E" opacity="1.000000" stroke="none" 
	d="
M129.107849,33.534458 
	C128.021011,36.567738 126.546066,39.430149 125.059738,42.560326 
	C122.832085,45.298256 121.644341,44.228588 121.233536,41.577862 
	C120.757133,38.503902 125.211449,33.734287 129.107849,33.534458 
z"/>
<path fill="#36384E" opacity="1.000000" stroke="none" 
	d="
M117.207031,29.668793 
	C116.835106,25.899048 116.691963,21.789614 116.774887,17.340694 
	C117.145912,21.110508 117.290871,25.219809 117.207031,29.668793 
z"/>
<path fill="#383447" opacity="1.000000" stroke="none" 
	d="
M164.986221,80.977928 
	C164.163849,81.552475 163.341476,82.127014 162.254044,82.845322 
	C163.098297,80.071976 164.207611,77.154869 165.651306,74.139450 
	C166.020691,75.510742 166.055710,76.980354 166.016922,79.124802 
	C165.624161,80.192398 165.305191,80.585167 164.986221,80.977928 
z"/>
<path fill="#383447" opacity="1.000000" stroke="none" 
	d="
M159.665771,84.050629 
	C157.888840,86.582451 155.744354,89.124977 153.311615,91.835052 
	C153.696045,88.234329 155.036850,84.993988 159.665771,84.050629 
z"/>
<path fill="#938268" opacity="1.000000" stroke="none" 
	d="
M105.989807,138.291229 
	C106.251183,137.419342 106.513039,136.949356 106.875702,136.227386 
	C107.254295,136.193176 107.532089,136.410919 107.996292,136.817627 
	C108.160622,137.186768 108.138557,137.366943 108.096283,138.127472 
	C108.103622,139.123886 108.131165,139.539978 108.158714,139.956070 
	C108.042671,141.103256 107.926636,142.250458 107.670830,143.807404 
	C107.017471,142.375824 106.503876,140.534470 105.989807,138.291229 
z"/>
<path fill="#383447" opacity="1.000000" stroke="none" 
	d="
M144.647247,97.024765 
	C142.939896,98.001801 140.840973,98.976387 138.358490,99.963745 
	C140.068527,98.991783 142.162109,98.007050 144.647247,97.024765 
z"/>
<path fill="#383447" opacity="1.000000" stroke="none" 
	d="
M149.715485,94.061417 
	C150.285721,94.512558 150.528244,95.032326 150.858292,96.047958 
	C150.945816,96.543823 150.822784,97.016479 150.563171,97.024109 
	C149.962692,97.093513 149.621857,97.155304 149.281006,97.217087 
	C148.768570,97.156227 148.256119,97.095367 147.357437,97.000931 
	C147.776718,96.021576 148.582245,95.075798 149.715485,94.061417 
z"/>
<path fill="#483E3F" opacity="1.000000" stroke="none" 
	d="
M195.041077,23.534033 
	C194.946548,23.026642 194.970413,22.815399 195.037292,22.287792 
	C196.027237,22.784840 196.974167,23.598253 197.921387,24.770763 
	C197.000931,24.696632 196.080185,24.263407 195.041077,23.534033 
z"/>
<path fill="#453D3B" opacity="1.000000" stroke="none" 
	d="
M68.436279,91.968910 
	C68.594688,90.971878 69.121506,89.922340 69.889221,88.705544 
	C69.688301,89.664322 69.246498,90.790359 68.436279,91.968910 
z"/>
<path fill="#383447" opacity="1.000000" stroke="none" 
	d="
M161.710327,83.048859 
	C161.521759,83.302238 161.053040,83.613480 160.302643,83.977516 
	C160.490707,83.722450 160.960434,83.414581 161.710327,83.048859 
z"/>
<path fill="#383447" opacity="1.000000" stroke="none" 
	d="
M152.714066,92.070206 
	C152.518723,92.324806 152.038605,92.628487 151.271820,92.981003 
	C151.466553,92.726326 151.947922,92.422813 152.714066,92.070206 
z"/>
<path fill="#3C3840" opacity="1.000000" stroke="none" 
	d="
M113.507782,105.509560 
	C113.488052,105.516953 113.527504,105.502167 113.507782,105.509560 
z"/>
<path fill="#473F3C" opacity="1.000000" stroke="none" 
	d="
M79.246338,197.834427 
	C79.040062,197.870270 78.833778,197.906128 78.317238,197.990463 
	C77.431961,197.528839 76.856956,197.018707 76.137993,195.881226 
	C75.985336,194.494263 75.976631,193.734680 75.967926,192.975098 
	C75.972534,187.632935 75.977150,182.290756 75.987740,176.143982 
	C75.990303,174.888672 75.986900,174.437958 75.983490,173.987244 
	C75.983429,173.245255 75.983376,172.503250 75.902145,171.100601 
	C74.877808,170.274475 73.934662,170.108994 72.991508,169.943512 
	C62.295479,175.375397 51.554451,175.559143 40.487717,170.822098 
	C32.394123,167.357681 24.263613,164.155746 19.075510,156.457779 
	C18.709322,155.914429 18.449089,155.299652 18.408274,154.366669 
	C19.138256,154.003952 19.599554,153.992645 20.353298,154.136627 
	C21.139484,154.734344 21.645605,155.163788 22.125162,155.621109 
	C37.336224,170.126846 54.176197,176.664825 74.493324,166.388290 
	C75.205559,166.028030 76.102409,166.032761 76.998871,166.158447 
	C77.576935,167.015030 78.069344,167.580551 78.619774,168.365509 
	C78.677788,168.584915 78.900681,168.980301 78.817017,169.388168 
	C78.678673,171.454712 78.623993,173.113403 78.328789,174.876434 
	C78.260681,175.727631 78.433105,176.474457 78.627197,177.674805 
	C78.848030,184.697006 79.047188,191.265717 79.246338,197.834427 
z"/>
<path fill="#493F3C" opacity="1.000000" stroke="none" 
	d="
M4.166943,127.346924 
	C3.711414,122.495125 3.066329,117.996017 3.086416,113.499886 
	C3.111261,107.938667 3.688257,102.379913 4.028665,96.429199 
	C4.030631,96.038292 4.010283,96.014526 4.202065,95.870178 
	C4.628440,95.514183 4.825709,95.272110 4.985653,94.999619 
	C7.763040,84.996735 11.031005,75.256210 19.930344,68.098480 
	C20.738173,68.000954 20.933672,68.004784 21.106781,68.365173 
	C20.378275,69.824715 19.573565,70.877541 18.982553,72.039093 
	C15.887165,78.122627 12.845938,84.233719 9.491742,90.579636 
	C8.525597,93.217468 7.853598,95.610901 7.050690,98.300652 
	C6.853999,99.021584 6.788218,99.446198 6.530874,100.211487 
	C4.410246,109.532333 4.044201,118.423203 7.868993,127.404762 
	C8.017474,128.150635 8.151405,128.567261 8.254782,129.346252 
	C8.796131,131.524811 9.368036,133.341003 9.946014,135.476776 
	C10.358804,136.525970 10.765522,137.255600 11.177759,138.337494 
	C11.462950,139.836670 11.742620,140.983566 12.022290,142.130463 
	C10.025426,139.342728 7.815855,136.677612 6.111529,133.721237 
	C5.090303,131.949799 4.858868,129.723038 4.166943,127.346924 
z"/>
<path fill="#C4AD81" opacity="1.000000" stroke="none" 
	d="
M164.932281,197.986786 
	C164.554688,197.891388 164.177094,197.795990 163.387939,197.372284 
	C161.970947,194.703247 160.965530,192.362518 160.157928,189.875275 
	C160.608368,189.516006 160.829285,189.274231 161.354538,189.079315 
	C162.141342,189.363327 162.759903,189.447861 163.017822,189.798019 
	C167.478745,195.854324 173.963745,195.407959 180.272919,194.962402 
	C186.562592,194.518219 193.400330,195.114349 196.938873,187.787476 
	C197.550888,186.520248 199.611679,185.952728 200.997894,185.310364 
	C200.992538,185.558701 200.978302,186.055267 200.816193,186.327484 
	C200.103622,187.730331 199.553162,188.860931 199.002563,189.997025 
	C199.002441,190.002502 198.991379,190.002548 198.807007,190.023010 
	C198.412399,190.362076 198.202164,190.680664 197.915100,191.333740 
	C194.886703,193.779785 191.935120,195.891357 188.740021,197.937561 
	C188.332703,197.909760 188.168869,197.947296 187.676743,197.911865 
	C186.904129,197.879288 186.459808,197.919708 185.554977,197.855927 
	C178.373749,197.830078 171.653015,197.908432 164.932281,197.986786 
z"/>
<path fill="#39353D" opacity="1.000000" stroke="none" 
	d="
M221.927155,172.706741 
	C220.440491,174.464218 218.891953,175.933121 217.174561,177.701584 
	C216.153824,179.190964 215.301956,180.380798 214.225037,181.787140 
	C212.853302,182.560867 211.706604,183.118103 209.994659,184.011200 
	C206.644836,186.255920 203.860260,188.164749 201.021851,190.013382 
	C200.968033,189.953171 200.860718,189.832458 201.000732,189.529480 
	C202.076309,187.810410 203.011871,186.394333 204.173553,184.867218 
	C204.592346,184.486557 204.785004,184.216919 205.254623,183.844879 
	C206.060333,183.182159 206.589066,182.621872 207.408905,181.903534 
	C211.217987,178.174530 214.735992,174.603546 218.586594,171.036362 
	C219.581024,171.015869 220.242828,170.991577 220.904648,170.967285 
	C221.224869,171.450928 221.545074,171.934540 221.927155,172.706741 
z"/>
<path fill="#39353D" opacity="1.000000" stroke="none" 
	d="
M188.983536,198.002930 
	C191.935120,195.891357 194.886703,193.779785 198.138824,191.232056 
	C198.720139,190.598801 198.904144,190.334351 198.991379,190.002548 
	C198.991379,190.002548 199.002441,190.002502 199.309937,189.948822 
	C200.031845,189.874252 200.446289,189.853348 200.860718,189.832458 
	C200.860718,189.832458 200.968033,189.953171 201.004761,190.375763 
	C201.018951,191.524399 200.996414,192.250412 200.973907,192.976440 
	C198.425644,198.481079 193.133850,199.898865 188.053146,200.481842 
	C181.388458,201.246597 174.590332,200.893112 167.849564,200.894684 
	C166.997238,200.894882 166.144760,200.133896 165.509155,199.433334 
	C172.489120,198.747452 179.252304,198.353790 186.015472,197.960144 
	C186.459808,197.919708 186.904129,197.879288 187.779785,198.020477 
	C188.211121,198.202072 188.631805,198.258972 188.631805,198.258972 
	C188.631805,198.258972 188.983536,198.002914 188.983536,198.002930 
z"/>
<path fill="#31374D" opacity="1.000000" stroke="none" 
	d="
M201.311523,192.925568 
	C200.996414,192.250412 201.018951,191.524399 201.058578,190.435974 
	C203.860260,188.164749 206.644836,186.255920 209.716766,184.177216 
	C209.582458,187.365219 209.160797,190.723099 208.744278,194.039963 
	C206.126816,193.610077 203.888000,193.242386 201.311523,192.925568 
z"/>
<path fill="#393648" opacity="1.000000" stroke="none" 
	d="
M154.996277,187.991867 
	C151.785629,188.238403 150.725861,189.852600 150.839447,193.128876 
	C150.903534,194.977661 149.462387,196.878616 148.350891,198.546097 
	C148.003952,197.891800 148.005417,197.447479 148.216919,196.751434 
	C148.309311,192.649887 148.191650,188.800064 148.463440,184.962769 
	C149.896637,184.981995 150.940353,184.988708 152.318207,184.998962 
	C153.097488,185.005737 153.542664,185.008957 154.042328,185.323547 
	C154.396637,186.420563 154.696457,187.206223 154.996277,187.991867 
z"/>
<path fill="#52493F" opacity="1.000000" stroke="none" 
	d="
M141.914185,200.890701 
	C139.257050,200.898758 136.599915,200.906799 133.373718,200.671997 
	C132.526550,199.777466 132.248459,199.125809 132.414062,198.350830 
	C135.915466,198.306747 138.973145,198.385986 142.025055,198.769806 
	C141.984238,199.679825 141.949219,200.285263 141.914185,200.890701 
z"/>
<path fill="#453F38" opacity="1.000000" stroke="none" 
	d="
M185.554977,197.855927 
	C179.252304,198.353790 172.489120,198.747452 165.342010,199.078903 
	C164.952301,198.845108 164.946533,198.673492 164.936523,198.244324 
	C171.653015,197.908432 178.373749,197.830078 185.554977,197.855927 
z"/>
<path fill="#493F3C" opacity="1.000000" stroke="none" 
	d="
M20.060854,153.981323 
	C19.599554,153.992645 19.138256,154.003952 18.331127,154.030670 
	C17.709473,153.862946 17.459726,153.649323 16.940105,152.931641 
	C15.439363,151.307816 14.234577,150.157562 13.029794,149.007309 
	C13.254377,148.103531 13.478961,147.199753 14.181792,146.159027 
	C15.063377,146.349640 15.466714,146.677200 15.950655,147.340698 
	C17.374456,149.778214 18.717655,151.879776 20.060854,153.981323 
z"/>
<path fill="#453F38" opacity="1.000000" stroke="none" 
	d="
M159.960129,190.021790 
	C160.965530,192.362518 161.970947,194.703247 163.095123,197.368073 
	C162.305008,197.556122 161.396164,197.420090 160.233643,196.796387 
	C159.010010,194.866257 158.040054,193.423813 157.070114,191.981354 
	C157.058502,191.552658 157.046890,191.123978 157.384125,190.350525 
	C158.213303,189.976868 158.693649,189.947983 159.371155,189.940338 
	C159.568329,189.961563 159.960129,190.021790 159.960129,190.021790 
z"/>
<path fill="#C8B185" opacity="1.000000" stroke="none" 
	d="
M15.870050,147.004745 
	C15.466714,146.677200 15.063377,146.349640 14.425321,145.900772 
	C13.637871,144.678482 13.085142,143.577515 12.277351,142.303497 
	C11.742620,140.983566 11.462950,139.836670 11.518776,138.341278 
	C12.533180,138.005920 13.212089,138.019043 13.981030,138.393982 
	C15.067232,141.494980 16.063402,144.234146 16.762224,146.982391 
	C16.266602,146.995895 16.068325,147.000320 15.870050,147.004745 
z"/>
<path fill="#52493F" opacity="1.000000" stroke="none" 
	d="
M120.325783,200.917938 
	C120.077499,200.318176 120.030807,199.719223 120.413399,198.693604 
	C123.236580,198.342209 125.630486,198.417480 128.020218,198.797058 
	C127.974686,199.706161 127.933319,200.310928 127.891960,200.915710 
	C127.480881,200.913132 127.069809,200.910538 126.067627,200.712769 
	C123.961197,200.653259 122.445854,200.788940 120.930519,200.924622 
	C120.930519,200.924622 120.527382,200.918732 120.325783,200.917938 
z"/>
<path fill="#39353D" opacity="1.000000" stroke="none" 
	d="
M159.173981,189.919098 
	C158.693649,189.947983 158.213303,189.976868 157.373093,190.029083 
	C156.485641,189.492157 155.958054,188.931900 155.213379,188.181763 
	C154.696457,187.206223 154.396637,186.420563 154.051941,185.313599 
	C154.007034,184.992294 154.024811,184.973221 154.413254,184.975616 
	C155.579391,184.969269 156.357101,184.960526 157.368042,185.196915 
	C158.125519,186.934402 158.649750,188.426758 159.173981,189.919098 
z"/>
<path fill="#3C3840" opacity="1.000000" stroke="none" 
	d="
M142.155716,201.075500 
	C141.949219,200.285263 141.984238,199.679825 142.313553,198.685760 
	C143.782181,198.171387 144.956543,198.045670 146.368912,197.815979 
	C147.073578,197.475723 147.540222,197.239441 148.006866,197.003159 
	C148.005417,197.447479 148.003952,197.891800 148.003571,198.669403 
	C146.135498,199.755234 144.266373,200.507767 142.155716,201.075500 
z"/>
<path fill="#3C3840" opacity="1.000000" stroke="none" 
	d="
M128.237701,200.996597 
	C127.933319,200.310928 127.974686,199.706161 128.409546,198.710510 
	C129.858795,198.371155 130.914581,198.422653 131.970352,198.474136 
	C132.248459,199.125809 132.526550,199.777466 132.930481,200.662933 
	C131.565353,200.956970 130.074402,201.017227 128.237701,200.996597 
z"/>
<path fill="#473F3C" opacity="1.000000" stroke="none" 
	d="
M12.860474,149.246902 
	C14.234577,150.157562 15.439363,151.307816 16.786495,152.738464 
	C15.516280,151.841400 14.103717,150.663940 12.860474,149.246902 
z"/>
<path fill="#39353D" opacity="1.000000" stroke="none" 
	d="
M157.059418,192.356079 
	C158.040054,193.423813 159.010010,194.866257 160.000061,196.655930 
	C159.029678,195.579041 158.039215,194.154922 157.059418,192.356079 
z"/>
<path fill="#3C3840" opacity="1.000000" stroke="none" 
	d="
M121.209023,201.143082 
	C122.445854,200.788940 123.961197,200.653259 125.759331,200.715515 
	C124.523926,201.062805 123.005730,201.212173 121.209023,201.143082 
z"/>
<path fill="#343748" opacity="1.000000" stroke="none" 
	d="
M75.683212,193.075226 
	C75.976631,193.734680 75.985336,194.494263 75.986496,195.633575 
	C75.785461,195.067322 75.591980,194.121323 75.683212,193.075226 
z"/>
<path fill="#343748" opacity="1.000000" stroke="none" 
	d="
M73.238335,170.157745 
	C73.934662,170.108994 74.877808,170.274475 75.899033,170.729614 
	C75.146461,170.803528 74.315811,170.587753 73.238335,170.157745 
z"/>
<path fill="#343748" opacity="1.000000" stroke="none" 
	d="
M75.827461,174.165115 
	C75.986900,174.437958 75.990303,174.888672 75.984512,175.677414 
	C75.874016,175.457962 75.772720,174.900467 75.827461,174.165115 
z"/>
<path fill="#463D39" opacity="1.000000" stroke="none" 
	d="
M21.129169,68.008621 
	C20.933672,68.004784 20.738173,68.000954 20.248972,67.989532 
	C23.067619,63.171196 25.380892,57.498543 29.453131,53.723179 
	C38.898804,44.966129 48.695442,36.400227 59.285915,29.118261 
	C69.825386,21.871363 80.970619,15.255967 93.642868,11.031212 
	C97.490097,9.449000 100.980797,7.954560 104.740891,6.239414 
	C106.918686,6.114277 108.827095,6.209846 110.614349,6.788198 
	C109.644798,7.812381 108.796379,8.353783 107.612343,8.920393 
	C106.853867,9.089274 106.431007,9.232947 105.687531,9.366570 
	C104.672203,9.814033 103.977493,10.271546 102.982582,10.694339 
	C102.125160,10.876645 101.567932,11.093672 100.732269,11.286922 
	C99.974083,11.521684 99.494331,11.780223 98.723083,12.061811 
	C97.956146,12.394659 97.480698,12.704455 96.715851,13.029164 
	C95.916794,13.289978 95.407143,13.535879 94.572632,13.808408 
	C92.995979,14.565952 91.744179,15.296869 90.219345,15.999369 
	C89.648895,16.164848 89.351471,16.358744 88.716232,16.560780 
	C87.211151,17.170118 86.043884,17.771318 84.503281,18.436390 
	C82.903793,19.281096 81.677628,20.061926 80.216682,20.767338 
	C77.615585,21.988630 75.249275,23.285339 72.531265,24.625179 
	C70.451538,25.776800 68.723518,26.885294 66.662125,28.063301 
	C63.799671,29.888731 61.270580,31.644646 58.543167,33.456467 
	C58.344849,33.512375 58.093365,33.838844 57.766716,33.878975 
	C56.619987,34.595131 55.799908,35.271152 54.664249,36.019299 
	C53.736092,36.676441 53.123516,37.261459 52.230301,37.900742 
	C50.923168,38.782368 49.896671,39.609726 48.569778,40.551243 
	C47.859234,41.138279 47.449078,41.611153 46.741013,42.209351 
	C44.617737,44.082771 42.792381,45.830868 40.656734,47.732506 
	C40.067982,48.247456 39.789513,48.608860 39.287952,49.044323 
	C38.772308,49.469070 38.479759,49.819756 37.952179,50.248951 
	C37.420696,50.705555 37.124245,51.083649 36.538460,51.612022 
	C35.275070,52.849007 34.301022,53.935711 33.053192,55.233768 
	C28.896000,59.632954 25.012585,63.820786 21.129169,68.008621 
z"/>
<path fill="#38384B" opacity="1.000000" stroke="none" 
	d="
M4.799987,95.143372 
	C4.825709,95.272110 4.628440,95.514183 4.207506,95.868866 
	C4.182306,95.740372 4.380024,95.498779 4.799987,95.143372 
z"/>
<path fill="#383439" opacity="1.000000" stroke="none" 
	d="
M192.989502,133.024460 
	C191.563705,135.372147 190.463974,138.098862 188.480515,139.787689 
	C185.513763,142.313751 181.901535,144.073318 178.609985,146.229355 
	C176.457535,147.639267 176.210999,154.238159 178.732849,154.969986 
	C185.298798,156.875443 183.229355,161.428879 183.008957,165.595901 
	C182.982727,166.091599 183.028198,166.591064 183.032715,167.805634 
	C183.017609,168.712692 183.010193,168.902908 182.751160,168.848145 
	C180.038177,164.066910 177.576813,159.530701 174.962036,154.666718 
	C174.173370,151.647095 169.679489,149.199478 173.532028,146.248672 
	C179.749741,141.486328 186.354034,137.228699 192.795044,132.757889 
	C192.795044,132.757889 192.920090,132.939041 192.989502,133.024460 
z"/>
<path fill="#56473B" opacity="1.000000" stroke="none" 
	d="
M175.115448,154.994492 
	C177.576813,159.530701 180.038177,164.066910 183.015213,169.041702 
	C185.039017,168.995529 186.547150,168.510788 188.055267,168.026062 
	C188.626648,167.220139 189.198013,166.414215 190.212509,165.241516 
	C192.127960,163.601044 193.600296,162.327316 195.072632,161.053589 
	C196.554016,159.791733 198.035400,158.529892 199.959290,156.990326 
	C200.614487,156.551071 200.784790,156.353073 200.912720,156.118622 
	C200.912720,156.118622 201.016571,156.039322 201.309662,155.982666 
	C202.387970,156.162827 203.173172,156.399658 203.817322,156.950317 
	C202.447464,158.537323 201.218643,159.810516 199.857178,161.261780 
	C199.527359,161.661850 199.313278,161.866074 198.804321,162.076843 
	C198.323898,162.395004 198.121475,162.688858 197.947388,162.964447 
	C197.975723,162.946182 197.927292,162.899277 197.619781,163.035065 
	C193.727676,166.596161 190.143082,170.021484 186.281006,173.548798 
	C185.597397,174.069611 185.191269,174.488434 184.447968,174.849487 
	C181.112350,168.192627 178.113907,161.593567 175.115448,154.994492 
z"/>
<path fill="#49443E" opacity="1.000000" stroke="none" 
	d="
M220.924225,170.642517 
	C220.242828,170.991577 219.581024,171.015869 218.463013,170.710175 
	C215.043900,167.215744 212.080963,164.051315 209.089554,160.644684 
	C209.061096,160.402481 209.021576,159.916321 209.018127,159.563660 
	C208.974167,158.509216 208.933670,157.807434 208.927826,157.071289 
	C208.962463,157.036911 209.031601,156.967987 209.031601,156.967987 
	C211.195724,158.831253 213.359848,160.694519 215.897064,162.969513 
	C216.469131,163.610580 216.695175,163.809082 216.948318,163.976730 
	C216.948318,163.976730 216.974121,164.018372 217.046173,164.313965 
	C217.435562,165.066925 217.752899,165.524277 218.070236,165.981628 
	C218.316010,166.155075 218.538269,166.354691 218.943481,167.061005 
	C219.754623,168.032898 220.359329,168.524277 220.964050,169.015640 
	C220.957291,169.449677 220.950546,169.883713 220.924225,170.642517 
z"/>
<path fill="#49443E" opacity="1.000000" stroke="none" 
	d="
M203.958389,156.636475 
	C203.173172,156.399658 202.387970,156.162827 201.359344,155.940216 
	C204.845261,152.345779 206.936646,152.422241 208.997070,156.604660 
	C209.031601,156.967987 208.962463,157.036911 208.633881,157.038071 
	C207.716034,156.984802 207.126770,156.930359 206.104950,156.864838 
	C205.101074,156.781342 204.529724,156.708908 203.958389,156.636475 
z"/>
<path fill="#3B3446" opacity="1.000000" stroke="none" 
	d="
M194.681793,161.045853 
	C193.600296,162.327316 192.127960,163.601044 190.346451,164.973969 
	C189.938873,162.129715 191.495010,160.930435 194.681793,161.045853 
z"/>
<path fill="#3B3446" opacity="1.000000" stroke="none" 
	d="
M187.636612,168.016296 
	C186.547150,168.510788 185.039017,168.995529 183.266846,169.286713 
	C183.010193,168.902908 183.017609,168.712692 183.043961,168.236938 
	C184.447922,167.969772 185.832932,167.988159 187.636612,168.016296 
z"/>
<path fill="#39353D" opacity="1.000000" stroke="none" 
	d="
M220.889786,168.718964 
	C220.359329,168.524277 219.754623,168.032898 219.082092,167.237549 
	C219.614685,167.429825 220.215118,167.926056 220.889786,168.718964 
z"/>
<path fill="#39353D" opacity="1.000000" stroke="none" 
	d="
M217.996246,165.709915 
	C217.752899,165.524277 217.435562,165.066925 217.061676,164.332932 
	C217.310822,164.516922 217.616547,164.977570 217.996246,165.709915 
z"/>
<path fill="#49443E" opacity="1.000000" stroke="none" 
	d="
M200.747589,156.223770 
	C200.784790,156.353073 200.614487,156.551071 200.232285,156.811081 
	C200.202820,156.686295 200.376053,156.492752 200.747589,156.223770 
z"/>
<path fill="#39353D" opacity="1.000000" stroke="none" 
	d="
M216.813812,163.794907 
	C216.695175,163.809082 216.469131,163.610580 216.134521,163.199799 
	C216.253601,163.184677 216.480423,163.382904 216.813812,163.794907 
z"/>
<path fill="#DFBB68" opacity="1.000000" stroke="none" 
	d="
M199.082291,162.052536 
	C199.313278,161.866074 199.527359,161.661850 200.275055,161.248413 
	C202.219482,161.045837 203.613358,161.034744 205.244125,161.027603 
	C205.481018,161.031540 205.954849,161.034302 205.971252,161.034271 
	C205.987640,161.034241 205.968338,161.061371 206.048203,161.377502 
	C207.083298,162.465012 208.038513,163.236374 209.274872,164.202652 
	C213.751312,169.503616 213.513397,172.833389 209.259918,176.518646 
	C206.278442,179.101822 203.739731,182.196045 201.003281,185.062027 
	C199.611679,185.952728 197.550888,186.520248 196.938873,187.787476 
	C193.400330,195.114349 186.562592,194.518219 180.272919,194.962402 
	C173.963745,195.407959 167.478745,195.854324 163.017822,189.798019 
	C162.759903,189.447861 162.141342,189.363327 161.350006,188.674194 
	C160.703720,186.578415 160.631638,184.873535 160.049744,183.365326 
	C158.101654,178.316010 156.279495,173.176651 153.790497,168.393677 
	C152.389389,165.701218 149.773163,163.641113 147.543457,161.227783 
	C146.916016,161.116409 146.449448,161.073364 145.583130,161.031342 
	C139.118454,161.510757 141.191040,165.936172 141.344116,169.233002 
	C141.760025,178.190842 143.794571,187.211731 139.554001,195.957581 
	C137.424164,195.963974 135.720123,195.961761 133.866730,195.630768 
	C131.272430,193.388550 128.978806,193.099991 126.549332,195.940735 
	C124.416962,195.957535 122.710838,195.963425 120.862564,195.784637 
	C120.512428,195.365280 120.275864,195.164261 119.762512,194.975388 
	C119.514305,194.953903 119.020393,194.888062 119.017487,194.426422 
	C119.009544,169.524521 118.924454,145.083710 119.088631,120.644585 
	C119.112343,117.114914 120.333595,113.593285 121.433868,110.055214 
	C131.664902,110.147865 140.184250,105.926590 148.769104,102.000626 
	C150.911682,101.020798 151.018768,99.652481 148.669922,98.576202 
	C148.818817,98.279686 148.967712,97.983170 149.198807,97.451874 
	C149.621857,97.155304 149.962692,97.093513 150.942871,97.033455 
	C152.747864,96.694130 153.913513,96.353073 155.433685,95.985580 
	C156.272995,95.849075 156.837311,95.863121 157.231003,95.610863 
	C167.540878,89.004868 178.225128,69.459526 173.581802,55.391224 
	C171.810791,50.025391 170.739059,43.469254 164.008270,41.118885 
	C155.855057,33.576553 145.664459,34.356186 135.360687,34.568722 
	C140.049408,29.079893 144.765106,24.699654 151.629929,22.940907 
	C163.510574,19.897116 175.284286,21.182756 187.528412,22.981243 
	C194.737610,27.964226 201.899216,32.516045 208.217911,38.033241 
	C217.009033,45.709267 220.019730,56.556568 220.831039,67.602203 
	C221.758026,80.223030 218.583618,92.269737 211.832520,103.889595 
	C209.002960,107.479744 206.304977,110.362823 204.024933,113.545326 
	C201.295944,117.354492 200.249756,122.638763 194.515594,123.653183 
	C194.035400,123.738129 193.763245,124.693192 193.279510,125.110924 
	C187.907318,129.750137 182.541168,134.397186 177.111664,138.968842 
	C174.361069,141.284866 171.028046,143.099762 168.897385,145.864822 
	C168.078995,146.926895 169.900620,149.993835 170.462051,152.162079 
	C170.709946,153.119400 171.001205,154.122284 170.956284,155.089783 
	C170.546432,163.916779 177.927765,168.886612 181.308884,175.829895 
	C182.269363,177.802216 183.850464,177.219376 184.785141,174.907272 
	C185.191269,174.488434 185.597397,174.069611 186.502823,173.750977 
	C188.663483,173.219009 190.324875,172.586838 192.185638,171.755829 
	C192.590149,171.039108 192.795273,170.521271 193.256561,169.785767 
	C194.984253,167.345154 196.455780,165.122223 197.927292,162.899277 
	C197.927292,162.899277 197.975723,162.946182 198.166412,162.843781 
	C198.598846,162.511780 198.840576,162.282166 199.082291,162.052536 
z"/>
<path fill="#D4B97D" opacity="1.000000" stroke="none" 
	d="
M184.447968,174.849487 
	C183.850464,177.219376 182.269363,177.802216 181.308884,175.829895 
	C177.927765,168.886612 170.546432,163.916779 170.956284,155.089783 
	C171.001205,154.122284 170.709946,153.119400 170.462051,152.162079 
	C169.900620,149.993835 168.078995,146.926895 168.897385,145.864822 
	C171.028046,143.099762 174.361069,141.284866 177.111664,138.968842 
	C182.541168,134.397186 187.907318,129.750137 193.279510,125.110924 
	C193.763245,124.693192 194.035400,123.738129 194.515594,123.653183 
	C200.249756,122.638763 201.295944,117.354492 204.024933,113.545326 
	C206.304977,110.362823 209.002960,107.479744 211.757568,104.234680 
	C212.261169,104.269798 212.523041,104.534302 213.015945,104.956772 
	C209.672455,110.726608 206.342148,116.515816 202.439545,121.889404 
	C199.735657,125.612450 196.242935,128.762604 192.948853,132.463318 
	C186.354034,137.228699 179.749741,141.486328 173.532028,146.248672 
	C169.679489,149.199478 174.173370,151.647095 174.962036,154.666718 
	C178.113907,161.593567 181.112350,168.192627 184.447968,174.849487 
z"/>
<path fill="#C7B081" opacity="1.000000" stroke="none" 
	d="
M107.947968,8.895185 
	C108.796379,8.353783 109.644798,7.812381 110.724785,7.074212 
	C111.690140,7.356023 112.423927,7.834601 113.249573,8.668098 
	C113.262749,10.083825 113.184067,11.144632 112.768478,12.414534 
	C110.937035,11.380812 109.442497,10.137999 107.947968,8.895185 
z"/>
<path fill="#DFBB68" opacity="1.000000" stroke="none" 
	d="
M58.093361,33.838844 
	C58.093365,33.838844 58.344849,33.512375 58.781860,33.744408 
	C64.223495,35.785027 66.198814,31.534712 69.291901,29.036430 
	C69.523842,29.016737 69.987663,28.976719 70.350952,28.960442 
	C76.207405,26.070845 81.763161,23.306757 87.138069,20.227034 
	C88.147209,19.648811 88.433952,17.809830 89.054047,16.552639 
	C89.351471,16.358744 89.648895,16.164848 90.451111,16.323868 
	C94.206573,16.060171 97.503868,15.618912 100.693024,14.770937 
	C103.201645,14.103912 105.576828,12.935038 108.091721,12.399468 
	C108.719139,24.392174 109.316292,35.972485 109.780998,47.558105 
	C109.911659,50.815613 110.179794,54.213268 109.443665,57.323906 
	C108.469635,61.439823 110.038834,67.123276 103.733246,68.673698 
	C103.404800,68.754463 103.235283,69.481575 102.991783,69.907768 
	C101.936157,69.920616 100.880524,69.933472 99.348671,69.704445 
	C98.245895,69.638466 97.619339,69.814362 96.992790,69.990265 
	C93.402710,71.187599 89.817123,72.398613 86.221741,73.579811 
	C73.517845,77.753448 65.505302,87.453995 58.294071,97.850868 
	C56.666084,100.198036 56.481026,103.735580 56.180729,106.779320 
	C55.191410,116.806961 55.307056,126.724510 61.701519,135.317825 
	C65.371269,140.249466 70.114868,143.276337 76.471390,144.079025 
	C84.455376,145.087265 91.937447,143.940872 99.265717,140.802429 
	C102.985924,139.209183 105.111618,140.535202 104.965767,144.725449 
	C104.746521,151.024307 104.209076,157.320755 104.227867,163.616974 
	C104.250618,171.241394 104.849251,178.862747 104.946434,186.488647 
	C105.052010,194.773758 103.319359,196.167465 95.375572,195.201080 
	C92.912834,194.901489 90.393547,195.066605 87.046097,195.017883 
	C85.127350,195.020615 84.062675,195.024429 82.793510,194.826584 
	C82.065079,194.406189 81.541138,194.187439 80.924316,193.627563 
	C80.875969,185.851349 80.920509,178.416275 80.972473,170.630005 
	C80.372231,169.186554 79.764549,168.094299 79.070045,166.668823 
	C78.300461,165.805817 77.617699,165.276016 76.804169,164.447235 
	C74.891373,164.258636 73.013527,164.049255 71.347939,164.548294 
	C68.215073,165.486969 65.296722,167.282425 62.127277,167.933533 
	C49.351185,170.558029 38.904598,165.075333 29.242054,157.661240 
	C24.965464,154.379807 21.107544,150.552704 17.059572,146.973312 
	C16.063402,144.234146 15.067232,141.494980 13.936777,138.049454 
	C12.554614,135.532562 11.306737,133.722031 10.054012,131.552063 
	C10.043349,130.471786 10.037532,129.750946 10.238371,128.727463 
	C9.307535,121.936432 8.170046,115.448036 7.042271,108.639267 
	C7.055939,107.891594 7.059892,107.464272 7.269097,106.821442 
	C7.648740,105.401573 7.823130,104.197227 8.007869,102.666771 
	C8.023842,101.905670 8.029466,101.470673 8.315119,100.936203 
	C8.722089,99.878708 8.849030,98.920685 8.993236,97.610184 
	C9.338873,96.166046 9.667247,95.074394 10.238705,93.735168 
	C13.608673,88.150093 16.813459,82.856361 19.843790,77.464577 
	C24.155781,69.792358 28.640846,62.343330 36.053604,57.079666 
	C38.162086,55.582466 41.878300,53.802734 38.187206,50.170444 
	C38.479759,49.819756 38.772308,49.469070 39.595856,48.886196 
	C40.406910,48.295662 40.686966,47.937313 40.967022,47.578964 
	C42.792381,45.830868 44.617737,44.082771 46.945702,42.238815 
	C47.448303,42.142952 47.856525,42.202904 48.008774,42.497032 
	C49.157574,42.995346 50.758789,43.691196 51.055470,43.326317 
	C53.537186,40.274208 55.779133,37.027138 58.093361,33.838844 
z"/>
<path fill="#D8BB76" opacity="1.000000" stroke="none" 
	d="
M103.056458,70.294952 
	C103.235283,69.481575 103.404800,68.754463 103.733246,68.673698 
	C110.038834,67.123276 108.469635,61.439823 109.443665,57.323906 
	C110.179794,54.213268 109.911659,50.815613 109.780998,47.558105 
	C109.316292,35.972485 108.719139,24.392174 108.430725,12.511225 
	C109.789917,14.792706 111.381149,17.282085 111.878899,19.973682 
	C112.673073,24.268187 112.740021,28.697174 113.114464,33.069298 
	C113.177727,33.701355 113.240982,34.333412 113.188843,35.645332 
	C113.056534,36.571121 113.039612,36.817055 113.022690,37.062984 
	C112.992325,37.228336 112.961952,37.393688 112.690758,38.101395 
	C112.573822,40.420753 112.697701,42.197765 112.821579,43.974773 
	C113.100258,45.079285 113.378952,46.183796 113.299805,47.825562 
	C112.937378,50.912460 112.932793,53.462101 112.931915,56.459572 
	C112.943207,59.592350 112.950783,62.277298 112.764389,65.221252 
	C112.389748,66.311684 112.209068,67.143105 112.021393,67.990173 
	C112.014404,68.005829 111.997772,68.035805 111.613998,68.050827 
	C109.133209,69.113388 107.036179,70.160942 104.672714,71.328339 
	C104.020203,71.451096 103.634117,71.454010 103.248039,71.456932 
	C103.205734,71.198662 103.163437,70.940399 103.056458,70.294952 
z"/>
<path fill="#413631" opacity="1.000000" stroke="none" 
	d="
M107.785416,145.427856 
	C108.590607,146.485748 109.876106,147.998581 109.894630,149.526764 
	C110.054169,162.687347 110.056999,175.851425 109.919617,189.012527 
	C109.894119,191.454956 109.028999,193.888626 108.260696,196.273087 
	C107.804115,195.736923 107.638222,195.253998 107.472328,194.771088 
	C107.541000,178.477356 107.609665,162.183640 107.785416,145.427856 
z"/>
<path fill="#D3B890" opacity="1.000000" stroke="none" 
	d="
M82.997993,195.028244 
	C84.062675,195.024429 85.127350,195.020615 86.590797,195.028931 
	C86.991287,195.584610 86.993011,196.128159 86.996017,196.943970 
	C84.697609,197.376007 82.397934,197.535797 79.672302,197.764999 
	C79.047188,191.265717 78.848030,184.697006 78.721985,177.268997 
	C78.719841,175.863831 78.644585,175.317947 78.569321,174.772079 
	C78.623993,173.113403 78.678673,171.454712 79.042618,169.568146 
	C79.889595,169.887253 80.427322,170.434219 80.965042,170.981201 
	C80.920509,178.416275 80.875969,185.851349 80.936111,193.923431 
	C81.294830,195.091782 81.548866,195.623138 81.802902,196.154480 
	C82.201263,195.779068 82.599632,195.403656 82.997993,195.028244 
z"/>
<path fill="#5D5044" opacity="1.000000" stroke="none" 
	d="
M103.185944,71.612869 
	C103.634117,71.454010 104.020203,71.451096 105.020660,71.391403 
	C106.101067,71.394409 106.567085,71.454208 107.033112,71.514008 
	C105.860161,71.827675 104.687210,72.141335 103.273933,72.273575 
	C103.033607,72.092140 103.123840,71.768799 103.185944,71.612869 
z"/>
<path fill="#938268" opacity="1.000000" stroke="none" 
	d="
M107.181992,194.923828 
	C107.638222,195.253998 107.804115,195.736923 108.061752,196.592834 
	C107.577614,197.452301 107.001724,197.938766 106.219330,198.292175 
	C106.305763,197.131622 106.598701,196.104095 107.181992,194.923828 
z"/>
<path fill="#938268" opacity="1.000000" stroke="none" 
	d="
M96.855011,197.937683 
	C96.440445,198.174042 95.875412,198.228897 95.156929,198.110107 
	C95.570496,197.876358 96.137527,197.816254 96.855011,197.937683 
z"/>
<path fill="#D8BB76" opacity="1.000000" stroke="none" 
	d="
M97.332855,69.989738 
	C97.619339,69.814362 98.245895,69.638466 98.952751,69.701767 
	C98.579681,69.957047 98.126305,69.973129 97.332855,69.989738 
z"/>
<path fill="#5D5044" opacity="1.000000" stroke="none" 
	d="
M84.741386,77.300522 
	C84.401840,77.758965 83.757278,78.252090 82.782272,78.730331 
	C83.113350,78.255371 83.774864,77.795280 84.741386,77.300522 
z"/>
<path fill="#D8BE8C" opacity="1.000000" stroke="none" 
	d="
M148.306900,98.636261 
	C151.018768,99.652481 150.911682,101.020798 148.769104,102.000626 
	C140.184250,105.926590 131.664902,110.147865 121.061768,110.137009 
	C119.506531,112.405312 118.119278,114.574570 118.103806,116.753563 
	C117.918503,142.864960 117.936661,168.977798 117.591232,195.085999 
	C116.667824,194.991470 116.054810,194.901199 115.441803,194.810944 
	C115.414520,194.414932 115.387238,194.018921 115.527290,192.955826 
	C115.574501,188.177887 115.454369,184.067032 115.334236,179.956177 
	C115.305222,158.024506 115.273071,136.092834 115.251205,114.161156 
	C115.248520,111.469009 115.038857,108.622910 119.140839,108.053299 
	C129.783783,107.375160 138.859772,103.023331 148.306900,98.636261 
z"/>
<path fill="#CDB789" opacity="1.000000" stroke="none" 
	d="
M134.016098,195.959534 
	C135.720123,195.961761 137.424164,195.963974 139.939499,195.947433 
	C142.107468,194.723175 143.900986,193.746597 144.688812,192.243057 
	C145.375076,190.933319 144.917084,189.028519 144.980637,187.387268 
	C145.281845,179.609070 145.588516,171.831070 145.972992,164.475876 
	C146.159637,166.620712 146.266556,168.342697 146.314087,170.487961 
	C146.307312,172.620789 146.359940,174.330338 146.350204,176.355927 
	C146.336014,177.096512 146.384171,177.521042 146.338806,178.302582 
	C146.277756,183.451218 146.310226,188.242874 146.284912,193.265228 
	C146.227112,193.495926 146.346649,193.956345 146.296295,194.351746 
	C146.207611,195.804749 146.169250,196.862350 146.130890,197.919937 
	C144.956543,198.045670 143.782181,198.171387 142.319336,198.381165 
	C138.973145,198.385986 135.915466,198.306747 132.414062,198.350830 
	C130.914581,198.422653 129.858795,198.371155 128.413696,198.406189 
	C125.630486,198.417480 123.236580,198.342209 120.408981,198.391937 
	C119.534386,198.410309 119.093491,198.303711 118.349548,197.846924 
	C118.065109,197.320007 118.083710,197.143250 118.369377,196.911957 
	C119.092842,196.567825 119.549255,196.278229 120.255478,195.986816 
	C120.505302,195.985001 121.004723,195.969330 121.004723,195.969330 
	C122.710838,195.963425 124.416962,195.957535 126.989502,195.959595 
	C129.909317,195.964859 131.962708,195.962204 134.016098,195.959534 
z"/>
<path fill="#9E9177" opacity="1.000000" stroke="none" 
	d="
M115.218765,180.410187 
	C115.454369,184.067032 115.574501,188.177887 115.534027,192.657867 
	C115.283371,188.972733 115.193336,184.918457 115.218765,180.410187 
z"/>
<path fill="#9E9177" opacity="1.000000" stroke="none" 
	d="
M118.102318,196.966507 
	C118.083710,197.143250 118.065109,197.320007 118.019958,197.762024 
	C117.060555,197.195786 116.127693,196.364243 115.318314,195.171814 
	C116.054810,194.901199 116.667824,194.991470 117.605896,195.076248 
	C117.930969,195.070755 117.946350,195.046570 117.921249,195.369064 
	C117.964874,196.116547 118.033600,196.541519 118.102318,196.966507 
z"/>
<path fill="#413631" opacity="1.000000" stroke="none" 
	d="
M108.293198,139.788483 
	C108.131165,139.539978 108.103622,139.123886 108.122589,138.398483 
	C108.255295,138.599747 108.341492,139.110306 108.293198,139.788483 
z"/>
<path fill="#C5AF7F" opacity="1.000000" stroke="none" 
	d="
M163.921448,41.539139 
	C170.739059,43.469254 171.810791,50.025391 173.581802,55.391224 
	C178.225128,69.459526 167.540878,89.004868 157.231003,95.610863 
	C156.837311,95.863121 156.272995,95.849075 155.033264,95.964340 
	C153.748749,95.914505 153.219131,95.859467 152.689529,95.804420 
	C156.851669,91.104256 161.013809,86.404083 165.081085,81.340927 
	C165.305191,80.585167 165.624161,80.192398 166.047272,79.566086 
	C174.026337,68.392586 173.110245,53.723991 163.782928,43.082008 
	C163.718750,42.519691 163.776703,42.239540 163.921448,41.539139 
z"/>
<path fill="#CCB781" opacity="1.000000" stroke="none" 
	d="
M113.219101,32.603539 
	C112.740021,28.697174 112.673073,24.268187 111.878899,19.973682 
	C111.381149,17.282085 109.789917,14.792706 108.350296,12.100840 
	C105.576828,12.935038 103.201645,14.103912 100.693024,14.770937 
	C97.503868,15.618912 94.206573,16.060171 90.724136,16.352285 
	C91.744179,15.296869 92.995979,14.565952 94.759232,13.988647 
	C95.848869,13.766258 96.427063,13.390256 97.005257,13.014253 
	C97.480698,12.704455 97.956146,12.394659 98.903130,12.205715 
	C99.920021,11.987945 100.465363,11.649322 101.010712,11.310699 
	C101.567932,11.093672 102.125160,10.876645 103.321663,10.713753 
	C104.643349,10.304132 105.325752,9.840375 106.008156,9.376619 
	C106.431007,9.232947 106.853867,9.089274 107.612343,8.920393 
	C109.442497,10.137999 110.937035,11.380812 112.701508,12.809828 
	C113.088867,19.376612 113.206299,25.757193 113.219101,32.603539 
z"/>
<path fill="#C7B081" opacity="1.000000" stroke="none" 
	d="
M112.958359,64.962242 
	C112.950783,62.277298 112.943207,59.592350 112.948135,56.099266 
	C113.167458,53.901772 113.374275,52.512413 113.581085,51.123055 
	C113.340485,57.762321 113.099884,64.401588 112.438606,70.696945 
	C112.011215,69.580627 112.004494,68.808220 111.997772,68.035805 
	C111.997772,68.035805 112.014404,68.005829 112.228745,67.741974 
	C112.614838,66.639496 112.786598,65.800873 112.958359,64.962242 
z"/>
<path fill="#D1B886" opacity="1.000000" stroke="none" 
	d="
M111.613998,68.050827 
	C112.004494,68.808220 112.011215,69.580627 112.016022,70.740028 
	C110.630829,71.239548 109.247543,71.352081 107.448685,71.489311 
	C106.567085,71.454208 106.101067,71.394409 105.287094,71.271553 
	C107.036179,70.160942 109.133209,69.113388 111.613998,68.050827 
z"/>
<path fill="#CCB781" opacity="1.000000" stroke="none" 
	d="
M113.646164,50.730164 
	C113.374275,52.512413 113.167458,53.901772 112.944427,55.651436 
	C112.932793,53.462101 112.937378,50.912460 113.228088,48.165020 
	C113.579880,48.757240 113.645554,49.547256 113.646164,50.730164 
z"/>
<path fill="#CCB781" opacity="1.000000" stroke="none" 
	d="
M112.884888,43.554314 
	C112.697701,42.197765 112.573822,40.420753 112.624596,38.344734 
	C112.848900,39.741768 112.898552,41.437809 112.884888,43.554314 
z"/>
<path fill="#CCB781" opacity="1.000000" stroke="none" 
	d="
M113.257507,36.952763 
	C113.039612,36.817055 113.056534,36.571121 113.111511,35.956398 
	C113.263817,36.005917 113.378075,36.424229 113.257507,36.952763 
z"/>
<path fill="#D8BE8C" opacity="1.000000" stroke="none" 
	d="
M152.411591,95.839645 
	C153.219131,95.859467 153.748749,95.914505 154.678772,95.990784 
	C153.913513,96.353073 152.747864,96.694130 151.202484,97.025833 
	C150.822784,97.016479 150.945816,96.543823 150.988968,96.303406 
	C151.399292,96.000282 151.766479,95.937584 152.411591,95.839645 
z"/>
<path fill="#C6B283" opacity="1.000000" stroke="none" 
	d="
M16.762224,146.982391 
	C21.107544,150.552704 24.965464,154.379807 29.242054,157.661240 
	C38.904598,165.075333 49.351185,170.558029 62.127277,167.933533 
	C65.296722,167.282425 68.215073,165.486969 71.347939,164.548294 
	C73.013527,164.049255 74.891373,164.258636 76.804169,164.728516 
	C76.927689,165.494995 76.920456,165.681183 76.913216,165.867386 
	C76.102409,166.032761 75.205559,166.028030 74.493324,166.388290 
	C54.176197,176.664825 37.336224,170.126846 22.125162,155.621109 
	C21.645605,155.163788 21.139484,154.734344 20.353298,154.136612 
	C18.717655,151.879776 17.374456,149.778214 15.950655,147.340698 
	C16.068325,147.000320 16.266602,146.995895 16.762224,146.982391 
z"/>
<path fill="#88765C" opacity="1.000000" stroke="none" 
	d="
M76.998871,166.158447 
	C76.920456,165.681183 76.927689,165.494995 76.934929,165.027496 
	C77.617699,165.276016 78.300461,165.805817 78.932098,166.960602 
	C78.774567,167.772415 78.668167,167.959244 78.561760,168.146088 
	C78.069344,167.580551 77.576935,167.015030 76.998871,166.158447 
z"/>
<path fill="#D1B886" opacity="1.000000" stroke="none" 
	d="
M78.619774,168.365509 
	C78.668167,167.959244 78.774567,167.772415 79.018921,167.293793 
	C79.764549,168.094299 80.372231,169.186554 80.972473,170.630005 
	C80.427322,170.434219 79.889595,169.887253 79.126282,169.160278 
	C78.900681,168.980301 78.677788,168.584915 78.619774,168.365509 
z"/>
<path fill="#88765C" opacity="1.000000" stroke="none" 
	d="
M78.328796,174.876434 
	C78.644585,175.317947 78.719841,175.863831 78.700317,176.815491 
	C78.433105,176.474457 78.260681,175.727631 78.328796,174.876434 
z"/>
<path fill="#CCB781" opacity="1.000000" stroke="none" 
	d="
M37.952179,50.248951 
	C41.878300,53.802734 38.162086,55.582466 36.053604,57.079666 
	C28.640846,62.343330 24.155781,69.792358 19.843790,77.464577 
	C16.813459,82.856361 13.608673,88.150093 10.227509,93.280762 
	C9.910783,92.161018 9.848337,91.248131 9.785891,90.335236 
	C12.845938,84.233719 15.887165,78.122627 18.982553,72.039093 
	C19.573565,70.877541 20.378275,69.824715 21.106781,68.365173 
	C25.012585,63.820786 28.896000,59.632954 33.402748,55.198586 
	C34.959988,53.788616 35.893890,52.625179 36.827793,51.461746 
	C37.124245,51.083649 37.420696,50.705555 37.952179,50.248951 
z"/>
<path fill="#C8B185" opacity="1.000000" stroke="none" 
	d="
M7.063845,107.036957 
	C7.059892,107.464272 7.055939,107.891594 7.030738,109.101738 
	C7.336293,113.925415 7.714757,117.963058 7.965143,122.008636 
	C8.069136,123.688873 7.899596,125.386032 7.854444,127.075500 
	C4.044201,118.423203 4.410246,109.532333 6.773746,100.376938 
	C7.483820,100.479698 7.759456,100.757690 8.035091,101.035683 
	C8.029466,101.470673 8.023842,101.905670 7.795533,102.949493 
	C7.403181,104.717873 7.233512,105.877411 7.063845,107.036957 
z"/>
<path fill="#CCB781" opacity="1.000000" stroke="none" 
	d="
M7.868993,127.404762 
	C7.899596,125.386032 8.069136,123.688873 7.965143,122.008636 
	C7.714757,117.963058 7.336293,113.925415 7.021022,109.422104 
	C8.170046,115.448036 9.307535,121.936432 9.946852,128.716949 
	C9.060898,129.000656 8.673119,128.992264 8.285337,128.983856 
	C8.151405,128.567261 8.017474,128.150635 7.868993,127.404762 
z"/>
<path fill="#CCB781" opacity="1.000000" stroke="none" 
	d="
M10.058859,131.911499 
	C11.306737,133.722031 12.554614,135.532562 13.846744,137.687622 
	C13.212089,138.019043 12.533180,138.005920 11.513256,137.989014 
	C10.765522,137.255600 10.358804,136.525970 9.965155,135.071655 
	C10.005102,133.535141 10.031980,132.723312 10.058859,131.911499 
z"/>
<path fill="#C8B185" opacity="1.000000" stroke="none" 
	d="
M9.491743,90.579636 
	C9.848337,91.248131 9.910783,92.161018 9.984425,93.528320 
	C9.667247,95.074394 9.338873,96.166046 8.694625,97.620483 
	C7.979701,97.990280 7.580652,97.997307 7.181601,98.004326 
	C7.853598,95.610901 8.525597,93.217468 9.491743,90.579636 
z"/>
<path fill="#CCB781" opacity="1.000000" stroke="none" 
	d="
M7.050691,98.300652 
	C7.580652,97.997307 7.979701,97.990280 8.677361,97.972961 
	C8.849030,98.920685 8.722089,99.878708 8.315120,100.936203 
	C7.759456,100.757690 7.483820,100.479698 6.965310,100.036255 
	C6.788218,99.446198 6.853999,99.021584 7.050691,98.300652 
z"/>
<path fill="#C8B185" opacity="1.000000" stroke="none" 
	d="
M10.054011,131.552063 
	C10.031980,132.723312 10.005102,133.535141 9.959084,134.752075 
	C9.368036,133.341003 8.796131,131.524811 8.254782,129.346237 
	C8.673119,128.992264 9.060898,129.000656 9.740196,129.019562 
	C10.037532,129.750946 10.043349,130.471786 10.054011,131.552063 
z"/>
<path fill="#C4B082" opacity="1.000000" stroke="none" 
	d="
M147.704330,161.296127 
	C149.773163,163.641113 152.389389,165.701218 153.790497,168.393677 
	C156.279495,173.176651 158.101654,178.316010 160.049744,183.365326 
	C160.631638,184.873535 160.703720,186.578415 161.013931,188.598328 
	C160.829285,189.274231 160.608368,189.516006 160.157928,189.875275 
	C159.960129,190.021790 159.568329,189.961563 159.371155,189.940338 
	C158.649750,188.426758 158.125519,186.934402 157.331680,184.843109 
	C156.107117,182.131973 155.152176,180.019775 154.161835,177.612579 
	C153.818741,176.827026 153.511063,176.336441 153.168030,175.885849 
	C153.132675,175.925858 153.236267,175.899887 153.224442,175.594070 
	C152.874176,174.798645 152.535721,174.309036 152.186157,173.809235 
	C152.175018,173.799026 152.181534,173.813309 152.166641,173.489517 
	C151.604477,172.014755 151.057190,170.863785 150.451233,169.337906 
	C149.496475,166.407379 148.600403,163.851746 147.704330,161.296127 
z"/>
<path fill="#D4BF8B" opacity="1.000000" stroke="none" 
	d="
M200.997925,185.310364 
	C203.739731,182.196045 206.278442,179.101822 209.259918,176.518646 
	C213.513397,172.833389 213.751312,169.503616 209.274902,163.833801 
	C208.976044,162.533340 208.958282,161.796661 208.984863,161.016663 
	C209.029190,160.973358 209.118011,160.886902 209.118011,160.886902 
	C212.080963,164.051315 215.043900,167.215744 218.130402,170.706360 
	C214.735992,174.603546 211.217987,178.174530 207.109253,181.975189 
	C206.004913,182.785675 205.491272,183.366486 204.977646,183.947281 
	C204.785004,184.216919 204.592346,184.486557 203.860840,184.917816 
	C202.540771,185.404739 201.759537,185.730011 200.978302,186.055267 
	C200.978302,186.055267 200.992538,185.558701 200.997925,185.310364 
z"/>
<path fill="#C0AD82" opacity="1.000000" stroke="none" 
	d="
M200.816193,186.327484 
	C201.759537,185.730011 202.540771,185.404739 203.634705,185.028870 
	C203.011871,186.394333 202.076309,187.810410 201.000732,189.529480 
	C200.446289,189.853348 200.031845,189.874252 199.310059,189.943344 
	C199.553162,188.860931 200.103622,187.730331 200.816193,186.327484 
z"/>
<path fill="#C0AD82" opacity="1.000000" stroke="none" 
	d="
M198.807007,190.023010 
	C198.904144,190.334351 198.720139,190.598801 198.215637,190.897583 
	C198.202164,190.680664 198.412399,190.362076 198.807007,190.023010 
z"/>
<path fill="#453F38" opacity="1.000000" stroke="none" 
	d="
M188.740021,197.937561 
	C188.983536,198.002914 188.631805,198.258972 188.631805,198.258972 
	C188.631805,198.258972 188.211121,198.202072 188.108063,198.093460 
	C188.168869,197.947296 188.332703,197.909760 188.740021,197.937561 
z"/>
<path fill="#C0AD82" opacity="1.000000" stroke="none" 
	d="
M205.254623,183.844879 
	C205.491272,183.366486 206.004913,182.785675 206.818176,182.133240 
	C206.589066,182.621872 206.060333,183.182159 205.254623,183.844879 
z"/>
<path fill="#453F38" opacity="1.000000" stroke="none" 
	d="
M146.368912,197.815979 
	C146.169250,196.862350 146.207611,195.804749 146.373276,194.247009 
	C146.591766,193.480194 146.539124,193.242752 146.342682,193.034515 
	C146.310226,188.242874 146.277756,183.451218 146.609665,178.310898 
	C147.335541,177.981110 147.697052,177.999985 148.053986,178.453400 
	C148.057602,180.908691 148.065796,182.929474 148.073990,184.950241 
	C148.191650,188.800064 148.309311,192.649887 148.216919,196.751434 
	C147.540222,197.239441 147.073578,197.475723 146.368912,197.815979 
z"/>
<path fill="#323556" opacity="1.000000" stroke="none" 
	d="
M148.463440,184.962769 
	C148.065796,182.929474 148.057602,180.908691 148.326263,178.333572 
	C150.049835,178.545059 151.496506,179.310883 152.946472,180.437744 
	C152.955963,181.519501 152.962143,182.240234 152.774902,183.175171 
	C152.382324,183.924744 152.183212,184.460083 151.984085,184.995422 
	C150.940353,184.988708 149.896637,184.981995 148.463440,184.962769 
z"/>
<path fill="#39353D" opacity="1.000000" stroke="none" 
	d="
M152.318207,184.998962 
	C152.183212,184.460083 152.382324,183.924744 152.977036,183.385452 
	C153.590027,183.912064 153.807419,184.442642 154.024811,184.973221 
	C154.024811,184.973221 154.007034,184.992294 153.997437,185.002243 
	C153.542664,185.008957 153.097488,185.005737 152.318207,184.998962 
z"/>
<path fill="#453F38" opacity="1.000000" stroke="none" 
	d="
M154.413254,184.975616 
	C153.807419,184.442642 153.590027,183.912064 153.170471,183.171234 
	C152.962143,182.240234 152.955963,181.519501 152.968933,180.085358 
	C153.002762,178.903214 153.017426,178.434479 153.323761,177.958740 
	C153.809357,177.936981 154.003296,177.922272 154.197235,177.907562 
	C155.152176,180.019775 156.107117,182.131973 157.098419,184.597992 
	C156.357101,184.960526 155.579391,184.969269 154.413254,184.975616 
z"/>
<path fill="#CCB781" opacity="1.000000" stroke="none" 
	d="
M88.716232,16.560780 
	C88.433952,17.809830 88.147209,19.648811 87.138069,20.227034 
	C81.763161,23.306757 76.207405,26.070845 70.522713,28.680225 
	C71.181786,27.138206 72.032379,25.860128 72.882973,24.582050 
	C75.249275,23.285339 77.615585,21.988630 80.617477,20.763783 
	C82.460907,20.014603 83.668762,19.193560 84.876617,18.372517 
	C86.043884,17.771318 87.211151,17.170118 88.716232,16.560780 
z"/>
<path fill="#CCB781" opacity="1.000000" stroke="none" 
	d="
M57.766716,33.878975 
	C55.779133,37.027138 53.537186,40.274208 51.055470,43.326317 
	C50.758789,43.691196 49.157574,42.995346 48.224857,42.228409 
	C48.482517,41.256138 48.676346,40.846611 48.870171,40.437080 
	C49.896671,39.609726 50.923168,38.782368 52.573139,37.862656 
	C53.791016,37.162594 54.385422,36.554882 54.979828,35.947174 
	C55.799908,35.271152 56.619987,34.595131 57.766716,33.878975 
z"/>
<path fill="#CCB781" opacity="1.000000" stroke="none" 
	d="
M69.059959,29.056124 
	C66.198814,31.534712 64.223495,35.785027 58.980179,33.688503 
	C61.270580,31.644646 63.799671,29.888731 66.878616,28.263123 
	C67.972305,28.614328 68.516129,28.835226 69.059959,29.056124 
z"/>
<path fill="#C7B081" opacity="1.000000" stroke="none" 
	d="
M69.291901,29.036430 
	C68.516129,28.835226 67.972305,28.614328 67.211983,28.193607 
	C68.723518,26.885294 70.451538,25.776800 72.531265,24.625179 
	C72.032379,25.860128 71.181786,27.138206 70.159424,28.696503 
	C69.987663,28.976719 69.523842,29.016737 69.291901,29.036430 
z"/>
<path fill="#C7B081" opacity="1.000000" stroke="none" 
	d="
M36.538460,51.612022 
	C35.893890,52.625179 34.959988,53.788616 33.676529,54.987236 
	C34.301022,53.935711 35.275070,52.849007 36.538460,51.612022 
z"/>
<path fill="#C7B081" opacity="1.000000" stroke="none" 
	d="
M84.503281,18.436390 
	C83.668762,19.193560 82.460907,20.014603 80.852264,20.839199 
	C81.677628,20.061926 82.903793,19.281096 84.503281,18.436390 
z"/>
<path fill="#C7B081" opacity="1.000000" stroke="none" 
	d="
M54.664246,36.019295 
	C54.385422,36.554882 53.791016,37.162594 52.853775,37.808392 
	C53.123516,37.261459 53.736092,36.676441 54.664246,36.019295 
z"/>
<path fill="#C7B081" opacity="1.000000" stroke="none" 
	d="
M96.715851,13.029165 
	C96.427063,13.390256 95.848869,13.766258 95.084084,13.962021 
	C95.407143,13.535879 95.916794,13.289978 96.715851,13.029165 
z"/>
<path fill="#C7B081" opacity="1.000000" stroke="none" 
	d="
M100.732269,11.286921 
	C100.465363,11.649322 99.920021,11.987945 99.194626,12.182665 
	C99.494331,11.780223 99.974083,11.521684 100.732269,11.286921 
z"/>
<path fill="#C7B081" opacity="1.000000" stroke="none" 
	d="
M105.687531,9.366569 
	C105.325752,9.840375 104.643349,10.304132 103.621864,10.748474 
	C103.977493,10.271546 104.672203,9.814033 105.687531,9.366569 
z"/>
<path fill="#C7B081" opacity="1.000000" stroke="none" 
	d="
M48.569778,40.551243 
	C48.676346,40.846611 48.482517,41.256138 48.072609,41.934284 
	C47.856525,42.202904 47.448303,42.142952 47.243614,42.113487 
	C47.449078,41.611153 47.859234,41.138279 48.569778,40.551243 
z"/>
<path fill="#C7B081" opacity="1.000000" stroke="none" 
	d="
M40.656734,47.732506 
	C40.686966,47.937313 40.406910,48.295662 39.818947,48.812138 
	C39.789513,48.608860 40.067982,48.247456 40.656734,47.732506 
z"/>
<path fill="#D1B885" opacity="1.000000" stroke="none" 
	d="
M191.986267,171.954681 
	C190.324875,172.586838 188.663483,173.219009 186.780304,173.648987 
	C190.143082,170.021484 193.727676,166.596161 197.619781,163.035065 
	C196.455780,165.122223 194.984253,167.345154 193.060684,169.988068 
	C192.401184,170.923584 192.193726,171.439133 191.986267,171.954681 
z"/>
<path fill="#D4BF8B" opacity="1.000000" stroke="none" 
	d="
M205.007233,161.023651 
	C203.613358,161.034744 202.219482,161.045837 200.407715,161.070312 
	C201.218643,159.810516 202.447464,158.537323 203.817322,156.950317 
	C204.529724,156.708908 205.101074,156.781342 206.085632,157.160858 
	C207.339783,158.284058 208.180679,159.100189 209.021576,159.916321 
	C209.021576,159.916321 209.061096,160.402481 209.089554,160.644684 
	C209.118011,160.886902 209.029190,160.973358 208.613861,161.006836 
	C207.455139,161.047333 206.711746,161.054352 205.968338,161.061371 
	C205.968338,161.061371 205.987640,161.034241 205.871948,160.927673 
	C205.462875,160.683334 205.213211,160.750854 205.007233,161.023651 
z"/>
<path fill="#D1B885" opacity="1.000000" stroke="none" 
	d="
M198.804321,162.076843 
	C198.840576,162.282166 198.598846,162.511780 198.138092,162.862061 
	C198.121475,162.688858 198.323898,162.395004 198.804321,162.076843 
z"/>
<path fill="#56473B" opacity="1.000000" stroke="none" 
	d="
M209.018127,159.563660 
	C208.180679,159.100189 207.339783,158.284058 206.518188,157.171921 
	C207.126770,156.930359 207.716034,156.984802 208.599243,157.072449 
	C208.933670,157.807434 208.974167,158.509216 209.018127,159.563660 
z"/>
<path fill="#D9BB74" opacity="1.000000" stroke="none" 
	d="
M145.893250,164.053009 
	C145.588516,171.831070 145.281845,179.609070 144.980637,187.387268 
	C144.917084,189.028519 145.375076,190.933319 144.688812,192.243057 
	C143.900986,193.746597 142.107468,194.723175 140.365311,195.938812 
	C143.794571,187.211731 141.760025,178.190842 141.344116,169.233002 
	C141.191040,165.936172 139.118454,161.510757 145.614380,161.407898 
	C145.994690,162.539963 145.943970,163.296478 145.893250,164.053009 
z"/>
<path fill="#D4B36D" opacity="1.000000" stroke="none" 
	d="
M117.916306,195.080505 
	C117.936661,168.977798 117.918503,142.864960 118.103806,116.753563 
	C118.119278,114.574570 119.506531,112.405312 120.628555,110.149734 
	C120.333595,113.593285 119.112343,117.114914 119.088631,120.644585 
	C118.924454,145.083710 119.009544,169.524521 118.748993,194.467499 
	C118.304382,194.995682 118.125366,195.021133 117.946350,195.046570 
	C117.946350,195.046570 117.930969,195.070755 117.916306,195.080505 
z"/>
<path fill="#674E25" opacity="1.000000" stroke="none" 
	d="
M145.972992,164.475876 
	C145.943970,163.296478 145.994690,162.539963 146.014130,161.406876 
	C146.449448,161.073364 146.916016,161.116409 147.543457,161.227783 
	C148.600403,163.851746 149.496475,166.407379 150.035553,169.386108 
	C148.576859,169.894363 147.475174,169.979507 146.373474,170.064667 
	C146.266556,168.342697 146.159637,166.620712 145.972992,164.475876 
z"/>
<path fill="#D9BB74" opacity="1.000000" stroke="none" 
	d="
M133.866730,195.630768 
	C131.962708,195.962204 129.909317,195.964859 127.415756,195.948685 
	C128.978806,193.099991 131.272430,193.388550 133.866730,195.630768 
z"/>
<path fill="#D4B97D" opacity="1.000000" stroke="none" 
	d="
M206.048203,161.377502 
	C206.711746,161.054352 207.455139,161.047333 208.569534,161.050140 
	C208.958282,161.796661 208.976044,162.533340 208.993774,163.638885 
	C208.038513,163.236374 207.083298,162.465012 206.048203,161.377502 
z"/>
<path fill="#D8BE8C" opacity="1.000000" stroke="none" 
	d="
M117.921249,195.369064 
	C118.125366,195.021133 118.304382,194.995682 118.751900,194.929138 
	C119.020393,194.888062 119.514305,194.953903 119.759682,195.223328 
	C120.005058,195.492752 120.005661,195.988632 120.005661,195.988632 
	C119.549255,196.278229 119.092842,196.567825 118.369377,196.911957 
	C118.033600,196.541519 117.964874,196.116547 117.921249,195.369064 
z"/>
<path fill="#D4B97D" opacity="1.000000" stroke="none" 
	d="
M192.185654,171.755829 
	C192.193726,171.439133 192.401184,170.923584 192.804520,170.205734 
	C192.795273,170.521271 192.590149,171.039108 192.185654,171.755829 
z"/>
<path fill="#D9BB74" opacity="1.000000" stroke="none" 
	d="
M120.255478,195.986816 
	C120.005661,195.988632 120.005058,195.492752 120.007889,195.244812 
	C120.275864,195.164261 120.512428,195.365280 120.862564,195.784637 
	C121.004723,195.969330 120.505302,195.985001 120.255478,195.986816 
z"/>
<path fill="#D4B97D" opacity="1.000000" stroke="none" 
	d="
M205.244125,161.027588 
	C205.213211,160.750854 205.462875,160.683334 205.855545,160.927704 
	C205.954849,161.034302 205.481018,161.031540 205.244125,161.027588 
z"/>
<path fill="#D1B886" opacity="1.000000" stroke="none" 
	d="
M82.793510,194.826584 
	C82.599632,195.403656 82.201263,195.779068 81.802902,196.154480 
	C81.548866,195.623138 81.294830,195.091782 81.028999,194.264557 
	C81.541138,194.187439 82.065079,194.406189 82.793510,194.826584 
z"/>
<path fill="#CCB781" opacity="1.000000" stroke="none" 
	d="
M7.269097,106.821442 
	C7.233512,105.877411 7.403181,104.717873 7.785184,103.275604 
	C7.823130,104.197227 7.648740,105.401573 7.269097,106.821442 
z"/>
<path fill="#D1B886" opacity="1.000000" stroke="none" 
	d="
M112.764397,65.221252 
	C112.786598,65.800873 112.614838,66.639496 112.235733,67.726326 
	C112.209068,67.143105 112.389748,66.311684 112.764397,65.221252 
z"/>
<path fill="#453F38" opacity="1.000000" stroke="none" 
	d="
M146.314087,170.487946 
	C147.475174,169.979507 148.576859,169.894363 150.094238,169.761017 
	C151.057190,170.863785 151.604477,172.014755 151.812439,173.545349 
	C149.786270,174.629929 148.099411,175.334900 146.412552,176.039871 
	C146.359940,174.330338 146.307312,172.620789 146.314087,170.487946 
z"/>
<path fill="#39353D" opacity="1.000000" stroke="none" 
	d="
M146.350204,176.355927 
	C148.099411,175.334900 149.786270,174.629929 151.827332,173.869141 
	C152.181534,173.813309 152.175018,173.799026 152.187592,174.119232 
	C152.545547,174.926270 152.890915,175.413071 153.236267,175.899887 
	C153.236267,175.899887 153.132675,175.925858 153.104401,176.236633 
	C153.061462,177.020187 153.046783,177.492981 153.032104,177.965759 
	C153.017426,178.434479 153.002762,178.903214 152.965637,179.724319 
	C151.496506,179.310883 150.049835,178.545059 148.330856,177.899048 
	C147.697052,177.999985 147.335541,177.981110 146.703186,177.953888 
	C146.384171,177.521042 146.336014,177.096512 146.350204,176.355927 
z"/>
<path fill="#52493F" opacity="1.000000" stroke="none" 
	d="
M146.284897,193.265228 
	C146.539124,193.242752 146.591766,193.480194 146.423615,193.851593 
	C146.346649,193.956345 146.227112,193.495926 146.284897,193.265228 
z"/>
<path fill="#52493F" opacity="1.000000" stroke="none" 
	d="
M153.224442,175.594070 
	C152.890915,175.413071 152.545547,174.926270 152.198730,174.129440 
	C152.535721,174.309036 152.874176,174.798645 153.224442,175.594070 
z"/>
<path fill="#52493F" opacity="1.000000" stroke="none" 
	d="
M153.323761,177.958740 
	C153.046783,177.492981 153.061462,177.020187 153.139771,176.196625 
	C153.511063,176.336441 153.818741,176.827026 154.161835,177.612579 
	C154.003296,177.922272 153.809357,177.936981 153.323761,177.958740 
z"/>
</svg>