<svg version="1.1" id="Layer_1" xmlns="http://www.w3.org/2000/svg" xmlns:xlink="http://www.w3.org/1999/xlink" x="0px" y="0px"
	 width="100%" viewBox="0 0 225 225" enable-background="new 0 0 225 225" xml:space="preserve">
<path fill="#091349" opacity="1.000000" stroke="none" 
	d="
M122.000000,226.000000 
	C81.333336,226.000000 41.166672,226.000000 1.000005,226.000000 
	C1.000004,151.000000 1.000004,76.000015 1.000002,1.000015 
	C75.999992,1.000010 150.999985,1.000010 225.999969,1.000005 
	C225.999985,75.999985 225.999985,150.999969 226.000000,225.999969 
	C191.500000,226.000000 157.000000,226.000000 122.000000,226.000000 
M94.839729,178.540955 
	C94.839729,178.540955 94.853210,178.297592 94.911133,177.479355 
	C94.827034,173.685837 92.337479,174.094543 89.660309,174.217682 
	C84.410530,174.459122 79.117439,174.751022 73.899216,174.324875 
	C70.627884,174.057724 68.359596,174.676132 68.163597,177.942200 
	C67.961823,181.304260 66.457275,186.152267 71.811867,186.793304 
	C79.181473,187.675598 86.661064,187.757690 94.096581,187.820175 
	C95.019104,187.827957 96.645317,185.659851 96.716240,184.429169 
	C96.801445,182.950516 95.569771,181.395981 94.912170,179.326279 
	C94.906090,179.143692 94.900002,178.961121 94.839729,178.540955 
M46.769089,146.666199 
	C46.472336,146.122696 46.175583,145.579208 45.955570,145.050186 
	C45.955570,145.050186 45.917248,145.118225 45.962345,144.310104 
	C45.211689,142.595108 44.461037,140.880112 43.826984,139.143723 
	C43.826984,139.143723 43.803249,139.259872 43.809731,138.560562 
	C41.771065,138.595078 39.732395,138.629593 37.693729,138.664108 
	C37.606827,139.310211 37.519928,139.956314 37.433025,140.602417 
	C38.889019,141.739777 40.345013,142.877121 42.150902,144.681320 
	C44.679245,151.155609 47.207584,157.629898 50.094925,165.023453 
	C52.415436,158.258820 54.339222,152.650711 56.543488,146.224976 
	C58.861778,152.650482 60.915878,158.343735 63.324501,165.019623 
	C66.817001,155.707428 69.861847,147.588852 72.906693,139.470261 
	C72.360329,139.131699 71.813957,138.793152 71.267593,138.454590 
	C66.231133,142.067413 68.198586,150.660461 62.196171,153.898483 
	C60.374477,148.858093 58.622128,144.009598 56.559509,138.302612 
	C54.230042,144.836716 52.247513,150.397644 50.264988,155.958572 
	C49.950272,155.964752 49.635559,155.970932 49.320843,155.977112 
	C48.840256,154.163330 48.359665,152.349533 47.921780,149.733536 
	C47.461498,148.908661 47.001213,148.083771 46.693687,147.157211 
	C46.693687,147.157211 46.597099,147.313232 46.769089,146.666199 
M126.813797,177.442612 
	C126.004539,176.989990 125.195274,176.537369 123.874908,176.392532 
	C122.732262,176.650452 121.589615,176.908386 119.860718,177.311081 
	C119.662514,177.641754 119.464302,177.972427 119.323692,178.179749 
	C119.323692,178.179749 119.420120,178.275848 118.766296,178.431198 
	C117.870552,179.279816 116.974808,180.128448 116.037140,180.305283 
	C116.058411,179.857254 116.079674,179.409210 116.480446,178.665115 
	C116.355446,178.147675 116.230446,177.630234 115.766685,176.759399 
	C115.080200,178.984070 114.393715,181.208740 113.707222,183.433395 
	C115.405258,183.910522 117.103302,184.387665 119.630531,184.939514 
	C120.186150,184.921173 120.741776,184.902832 121.971794,184.879333 
	C123.237900,184.561325 124.504005,184.243317 126.525436,184.028687 
	C130.166611,184.834274 133.842102,185.925705 137.730743,182.925201 
	C140.099274,183.160873 142.419250,185.440582 145.266556,183.672714 
	C147.119034,183.756882 148.971527,183.841034 150.994583,183.281784 
	C151.052490,182.841202 151.110413,182.400635 151.781555,181.902725 
	C153.855560,182.600174 155.929581,183.297623 158.105682,184.225723 
	C158.105682,184.225723 158.410645,184.243088 158.410645,184.243088 
	C158.410645,184.243088 157.995117,184.003632 158.011688,183.200882 
	C158.173416,180.287125 161.196274,175.985779 155.809021,175.387863 
	C151.669724,174.928452 147.326263,176.308411 142.366455,176.839294 
	C141.914215,176.960617 141.461960,177.081955 140.553635,176.616013 
	C138.165741,176.307114 135.739700,175.595261 133.401993,175.816574 
	C131.525284,175.994232 129.755646,177.303024 127.354797,178.074982 
	C127.161957,178.105835 126.969124,178.136688 126.856506,178.113571 
	C126.856506,178.113571 126.881798,178.206879 126.813797,177.442612 
M97.978256,48.871918 
	C97.911179,48.818775 97.844109,48.765633 97.777031,48.712490 
	C97.886246,48.848469 97.995461,48.984447 98.097679,49.768475 
	C98.506538,50.935055 98.915390,52.101631 99.275780,53.706795 
	C99.275780,53.706795 99.462273,54.106705 99.601891,54.846043 
	C100.602219,57.007454 101.602554,59.168865 102.753716,61.934841 
	C102.929619,62.310200 103.105522,62.685555 103.270096,63.810207 
	C104.994461,67.896706 106.718826,71.983200 108.684235,76.807549 
	C110.354187,80.930862 112.024139,85.054184 113.858757,89.882561 
	C114.884666,92.157738 115.910576,94.432907 116.994507,97.502335 
	C117.385818,98.992630 117.777122,100.482925 118.276062,102.698479 
	C120.482498,107.498672 122.688927,112.298874 124.978943,117.852325 
	C126.068977,120.662323 127.159012,123.472321 128.249054,126.282310 
	C128.762115,126.177116 129.275177,126.071922 129.788239,125.966728 
	C130.897308,122.672958 132.006393,119.379189 133.744293,115.768318 
	C134.852921,113.637573 136.384811,111.618431 136.982208,109.352882 
	C138.231674,104.614311 138.988449,99.745819 140.389023,94.430344 
	C141.975693,91.978050 143.562363,89.525764 145.771408,86.689651 
	C147.841400,80.111389 149.911407,73.533127 152.346710,66.585762 
	C153.873978,62.420612 155.401245,58.255459 157.385193,53.399387 
	C157.016678,52.262798 156.872955,50.308517 156.239838,50.134460 
	C153.801361,49.464088 151.203445,49.139027 148.671204,49.171505 
	C147.785202,49.182869 146.226334,50.577209 146.203552,51.375118 
	C146.169693,52.560097 146.972595,54.060848 147.898773,54.894688 
	C148.731583,55.644463 150.210281,55.676826 151.104858,56.734226 
	C150.360687,59.477562 149.616501,62.220894 148.211624,65.194199 
	C145.526993,71.764946 142.842346,78.335686 139.834625,85.589928 
	C138.857147,88.371124 137.879684,91.152321 136.395660,94.415627 
	C134.322403,99.601791 132.249146,104.787964 129.957520,110.975975 
	C129.730713,111.614922 129.503906,112.253860 129.023727,112.313072 
	C128.391525,111.491592 127.759323,110.670105 127.100197,109.937256 
	C127.100197,109.937256 127.192772,109.940735 127.153847,109.153000 
	C125.742958,105.488190 124.332062,101.823380 122.868156,97.454750 
	C122.199387,95.983238 121.530617,94.511719 120.841293,92.280670 
	C120.533257,90.555420 120.225220,88.830170 119.960640,86.317009 
	C120.891525,84.568779 117.628143,81.118683 122.770554,80.491989 
	C124.129868,76.381165 125.489182,72.270348 127.033737,67.651581 
	C127.073303,67.475761 127.112869,67.299934 127.772354,66.784706 
	C129.149490,63.181946 130.526642,59.579185 132.275543,55.387867 
	C133.292664,53.842667 134.309769,52.297462 135.365005,50.694359 
	C132.549652,49.063080 126.063721,52.168400 129.958939,44.628185 
	C130.141342,43.106121 130.323730,41.584061 130.506119,40.061996 
	C128.970779,40.316284 127.435448,40.570568 125.404160,41.290489 
	C125.184059,42.170692 124.963959,43.050900 124.806847,43.868061 
	C124.806847,43.868061 124.731247,43.820873 124.227066,44.194054 
	C123.485527,45.167831 122.743996,46.141605 121.229019,47.396202 
	C118.153984,47.604397 115.077812,47.797268 112.004196,48.024597 
	C108.000229,48.320744 103.998283,48.644230 99.386703,49.132374 
	C98.965218,49.123535 98.543739,49.114697 97.978256,48.871918 
M100.831146,106.344604 
	C100.249786,105.481941 99.668419,104.619286 99.128532,103.353493 
	C99.128532,103.353493 98.956329,102.986633 99.038414,102.246674 
	C97.392685,99.769012 95.746956,97.291351 94.154221,94.256897 
	C93.003784,89.864532 91.853340,85.472176 90.654297,80.357986 
	C89.145943,77.546921 87.637589,74.735855 86.089890,71.132446 
	C84.632217,67.060448 83.174545,62.988449 81.835480,58.098068 
	C81.530167,55.320335 83.155685,55.115353 85.403976,54.857521 
	C86.381653,54.745403 87.587006,52.864460 87.821655,51.622952 
	C87.937660,51.009174 86.129189,49.386162 85.117722,49.318272 
	C81.073341,49.046806 77.000038,49.206219 72.212608,49.206219 
	C73.025116,51.108315 73.574356,52.394093 74.130226,54.451168 
	C77.064972,61.615505 79.999725,68.779839 82.410362,76.231758 
	C83.595917,78.820183 84.781464,81.408600 86.048370,84.774002 
	C87.982697,89.262299 89.917015,93.750603 91.919075,98.978073 
	C93.625694,102.983223 95.332306,106.988365 96.990898,111.527748 
	C97.049988,111.696609 97.109085,111.865463 97.082832,112.680038 
	C97.451767,113.433960 97.820694,114.187881 98.071815,115.694695 
	C99.762321,119.593834 101.452827,123.492981 103.637924,128.532913 
	C105.656479,123.187981 107.213867,119.064186 109.127312,114.301476 
	C110.257607,111.422905 111.246696,108.478348 112.553284,105.682152 
	C114.255905,102.038429 112.881470,99.507736 109.900856,96.458580 
	C108.390938,100.733597 107.139610,104.276451 105.409920,108.307198 
	C104.587128,109.502945 104.804321,112.820198 101.948982,109.492950 
	C101.810394,109.171242 101.572708,108.962189 101.211937,108.221886 
	C101.114517,107.808243 101.017097,107.394592 100.831146,106.344604 
M130.242508,163.715027 
	C132.737244,164.699982 133.014969,163.295059 133.002228,161.295761 
	C132.954590,153.820892 132.983185,146.345535 132.983185,138.226303 
	C131.627869,139.009232 130.740143,139.522049 129.348053,140.683563 
	C129.515152,148.112030 129.682266,155.540482 130.242508,163.715027 
M154.373734,161.329590 
	C155.855820,162.419266 157.337891,163.508957 158.819962,164.598633 
	C159.153687,164.172043 159.487411,163.745453 159.821121,163.318863 
	C157.292313,159.975418 154.763489,156.631989 152.241714,153.297867 
	C157.854874,150.662674 159.418274,147.796295 157.737198,143.206589 
	C156.256729,139.164474 151.790955,137.999298 144.197388,139.713593 
	C144.197388,147.764923 144.197388,155.833084 144.197388,163.901260 
	C144.749985,164.013718 145.302582,164.126175 145.855164,164.238632 
	C146.462677,161.143951 147.070175,158.049286 147.873199,153.958603 
	C150.234131,156.587311 152.086594,158.649887 154.373734,161.329590 
M93.066353,149.269547 
	C91.580399,145.805664 90.094444,142.341797 88.088463,137.665710 
	C83.792587,147.148453 80.095428,155.309570 76.398270,163.470703 
	C76.981041,163.852737 77.563812,164.234772 78.146584,164.616821 
	C79.142227,163.500046 80.098869,162.345230 81.142715,161.275482 
	C82.676521,159.703644 84.416435,156.790802 85.813545,156.934174 
	C89.194221,157.281067 93.763618,156.267593 95.199539,161.442505 
	C95.531715,162.639633 97.181282,163.471207 98.224640,164.470993 
	C98.600632,164.136826 98.976631,163.802673 99.352631,163.468506 
	C97.354485,158.971771 95.356339,154.475021 93.066353,149.269547 
M173.919281,142.454285 
	C170.621338,149.393829 167.323395,156.333359 164.025467,163.272903 
	C164.651337,163.690094 165.277206,164.107285 165.903076,164.524490 
	C166.900589,163.458389 168.543671,162.520035 168.784286,161.304153 
	C169.847824,155.929886 174.208679,156.776001 177.482376,157.033264 
	C179.356323,157.180511 181.064240,159.735840 182.798340,161.262161 
	C183.924530,162.253387 184.963226,163.344025 186.041122,164.390137 
	C186.396545,164.034607 186.751984,163.679077 187.107407,163.323532 
	C183.512344,155.224518 179.917267,147.125488 175.937622,138.160049 
	C174.869507,140.286682 174.500015,141.022339 173.919281,142.454285 
M107.013214,154.316727 
	C107.013214,157.837997 107.013214,161.359283 107.013214,164.880554 
	C107.758781,164.924301 108.504356,164.968033 109.249924,165.011765 
	C109.510170,162.963364 109.961761,160.918121 109.995552,158.865997 
	C110.106628,152.119614 110.051308,152.182144 116.793320,151.876129 
	C118.164551,151.813889 119.505058,151.074417 120.859734,150.647141 
	C120.742912,150.086853 120.626091,149.526581 120.509277,148.966309 
	C117.090172,148.966309 113.671074,148.966309 110.293900,148.966309 
	C109.870445,142.031876 109.872597,142.106094 116.039963,141.927094 
	C117.607368,141.881607 119.156326,141.200500 120.713760,140.811462 
	C120.554840,140.294830 120.395920,139.778198 120.237000,139.261566 
	C115.988503,139.261566 111.740005,139.261566 107.005585,139.261566 
	C107.005585,144.118332 107.005585,148.740082 107.013214,154.316727 
z"/>
<path fill="#E1E4E9" opacity="1.000000" stroke="none" 
	d="
M47.879078,150.535751 
	C48.359665,152.349533 48.840256,154.163330 49.320843,155.977112 
	C49.635559,155.970932 49.950272,155.964752 50.264988,155.958572 
	C52.247513,150.397644 54.230042,144.836716 56.559509,138.302612 
	C58.622128,144.009598 60.374477,148.858093 62.196171,153.898483 
	C68.198586,150.660461 66.231133,142.067413 71.267593,138.454590 
	C71.813957,138.793152 72.360329,139.131699 72.906693,139.470261 
	C69.861847,147.588852 66.817001,155.707428 63.324501,165.019623 
	C60.915878,158.343735 58.861778,152.650482 56.543488,146.224976 
	C54.339222,152.650711 52.415436,158.258820 50.094925,165.023453 
	C47.207584,157.629898 44.679245,151.155609 41.971542,144.009460 
	C41.327442,142.107071 40.862698,140.876526 40.252125,139.259872 
	C41.615189,139.259872 42.709217,139.259872 43.803249,139.259872 
	C43.803249,139.259872 43.826984,139.143723 43.838131,139.508881 
	C44.538601,141.622101 45.227924,143.370163 45.917248,145.118225 
	C45.917248,145.118225 45.955570,145.050186 45.913147,145.353027 
	C46.112846,146.208328 46.354973,146.760788 46.597099,147.313232 
	C46.597099,147.313232 46.693687,147.157211 46.706955,147.558090 
	C47.106506,148.817902 47.492794,149.676819 47.879078,150.535751 
z"/>
<path fill="#E7EBEE" opacity="1.000000" stroke="none" 
	d="
M154.156403,161.021027 
	C152.086594,158.649887 150.234131,156.587311 147.873199,153.958603 
	C147.070175,158.049286 146.462677,161.143951 145.855164,164.238632 
	C145.302582,164.126175 144.749985,164.013718 144.197388,163.901260 
	C144.197388,155.833084 144.197388,147.764923 144.197388,139.713593 
	C151.790955,137.999298 156.256729,139.164474 157.737198,143.206589 
	C159.418274,147.796295 157.854874,150.662674 152.241714,153.297867 
	C154.763489,156.631989 157.292313,159.975418 159.821121,163.318863 
	C159.487411,163.745453 159.153687,164.172043 158.819962,164.598633 
	C157.337891,163.508957 155.855820,162.419266 154.156403,161.021027 
M148.309830,142.822815 
	C148.268784,145.058411 147.289581,148.309753 148.381699,149.318466 
	C150.666031,151.428314 153.030121,149.423660 154.296188,147.072998 
	C154.815491,146.108826 154.765259,143.715424 154.427475,143.602158 
	C152.770828,143.046585 150.930191,143.039673 148.309830,142.822815 
z"/>
<path fill="#DDE0E6" opacity="1.000000" stroke="none" 
	d="
M93.212273,149.623917 
	C95.356339,154.475021 97.354485,158.971771 99.352631,163.468506 
	C98.976631,163.802673 98.600632,164.136826 98.224640,164.470993 
	C97.181282,163.471207 95.531715,162.639633 95.199539,161.442505 
	C93.763618,156.267593 89.194221,157.281067 85.813545,156.934174 
	C84.416435,156.790802 82.676521,159.703644 81.142715,161.275482 
	C80.098869,162.345230 79.142227,163.500046 78.146584,164.616821 
	C77.563812,164.234772 76.981041,163.852737 76.398270,163.470703 
	C80.095428,155.309570 83.792587,147.148453 88.088463,137.665710 
	C90.094444,142.341797 91.580399,145.805664 93.212273,149.623917 
M87.664055,146.083527 
	C86.553368,148.562714 85.442673,151.041916 84.216988,153.777802 
	C87.055305,153.777802 89.313896,153.777802 92.021744,153.777802 
	C90.727058,150.963730 89.571861,148.452866 87.664055,146.083527 
z"/>
<path fill="#DEE2E8" opacity="1.000000" stroke="none" 
	d="
M174.024902,142.106140 
	C174.500015,141.022339 174.869507,140.286682 175.937622,138.160049 
	C179.917267,147.125488 183.512344,155.224518 187.107407,163.323532 
	C186.751984,163.679077 186.396545,164.034607 186.041122,164.390137 
	C184.963226,163.344025 183.924530,162.253387 182.798340,161.262161 
	C181.064240,159.735840 179.356323,157.180511 177.482376,157.033264 
	C174.208679,156.776001 169.847824,155.929886 168.784286,161.304153 
	C168.543671,162.520035 166.900589,163.458389 165.903076,164.524490 
	C165.277206,164.107285 164.651337,163.690094 164.025467,163.272903 
	C167.323395,156.333359 170.621338,149.393829 174.024902,142.106140 
M174.801437,147.159256 
	C173.876144,149.290833 172.950836,151.422394 172.010742,153.588058 
	C174.841919,153.588058 177.004318,153.588058 180.550354,153.588058 
	C178.268112,150.608475 176.662369,148.512100 174.801437,147.159256 
z"/>
<path fill="#0E173C" opacity="1.000000" stroke="none" 
	d="
M94.908264,179.874298 
	C95.569771,181.395981 96.801445,182.950516 96.716240,184.429169 
	C96.645317,185.659851 95.019104,187.827957 94.096581,187.820175 
	C86.661064,187.757690 79.181473,187.675598 71.811867,186.793304 
	C66.457275,186.152267 67.961823,181.304260 68.163597,177.942200 
	C68.359596,174.676132 70.627884,174.057724 73.899216,174.324875 
	C79.117439,174.751022 84.410530,174.459122 89.660309,174.217682 
	C92.337479,174.094543 94.827034,173.685837 94.535278,177.827240 
	C93.460457,178.078918 92.761482,177.982727 91.916725,177.616821 
	C91.182175,177.235641 90.593407,177.124161 89.656647,177.008820 
	C88.845688,177.033173 88.382713,177.061417 87.626030,177.103714 
	C86.987617,177.735291 86.642921,178.352783 86.167076,179.318863 
	C85.987747,179.910980 85.939560,180.154541 85.606049,180.206787 
	C84.227325,179.071152 83.133904,178.126831 81.820076,177.129181 
	C81.599670,177.075867 81.146568,177.052551 80.837181,177.048462 
	C80.321701,177.052948 80.115601,177.061523 79.594223,177.053802 
	C78.796738,177.361893 78.314537,177.686279 77.464615,178.031891 
	C76.852165,178.073303 76.607445,178.093506 76.132988,178.061768 
	C75.253632,177.975128 74.604012,177.940399 73.568527,177.987808 
	C68.748535,177.978378 68.988075,180.547897 69.819351,183.680466 
	C71.341789,183.828400 72.651009,183.955627 74.095779,184.267334 
	C74.938896,184.262131 75.646454,184.072433 76.727066,183.917267 
	C77.348427,183.966278 77.596718,183.980743 77.995178,184.268005 
	C78.729874,184.670471 79.314407,184.800140 80.212402,184.939423 
	C80.734871,184.943695 80.943871,184.938385 81.368652,184.918884 
	C81.584419,184.904709 82.001648,184.790909 82.271698,184.811310 
	C82.766426,184.558594 82.991089,184.285492 83.572151,183.997620 
	C84.401306,183.931976 84.874062,183.881134 85.573952,184.012619 
	C86.493607,184.435211 87.186134,184.675476 88.150955,184.945984 
	C88.605606,184.986404 88.787964,184.996567 89.250931,185.003479 
	C89.717949,184.987457 89.904366,184.974670 90.382126,184.955017 
	C91.048576,184.628586 91.423676,184.308990 91.880394,183.724518 
	C92.009117,183.280975 92.056221,183.102310 92.379807,182.907730 
	C93.083450,182.581375 93.510612,182.270966 94.022705,181.636169 
	C94.092041,180.868271 94.076454,180.424728 94.272484,179.952591 
	C94.484100,179.923981 94.908264,179.874298 94.908264,179.874298 
z"/>
<path fill="#E7EBEE" opacity="1.000000" stroke="none" 
	d="
M107.009399,153.839279 
	C107.005585,148.740082 107.005585,144.118332 107.005585,139.261566 
	C111.740005,139.261566 115.988503,139.261566 120.237000,139.261566 
	C120.395920,139.778198 120.554840,140.294830 120.713760,140.811462 
	C119.156326,141.200500 117.607368,141.881607 116.039963,141.927094 
	C109.872597,142.106094 109.870445,142.031876 110.293900,148.966309 
	C113.671074,148.966309 117.090172,148.966309 120.509277,148.966309 
	C120.626091,149.526581 120.742912,150.086853 120.859734,150.647141 
	C119.505058,151.074417 118.164551,151.813889 116.793320,151.876129 
	C110.051308,152.182144 110.106628,152.119614 109.995552,158.865997 
	C109.961761,160.918121 109.510170,162.963364 109.249924,165.011765 
	C108.504356,164.968033 107.758781,164.924301 107.013214,164.880554 
	C107.013214,161.359283 107.013214,157.837997 107.009399,153.839279 
z"/>
<path fill="#EFDA98" opacity="1.000000" stroke="none" 
	d="
M140.157715,84.906433 
	C142.842346,78.335686 145.526993,71.764946 148.833099,65.197060 
	C150.296844,65.784904 151.139130,66.369881 151.981400,66.954865 
	C149.911407,73.533127 147.841400,80.111389 145.145554,86.821358 
	C143.065704,86.270851 141.611710,85.588646 140.157715,84.906433 
z"/>
<path fill="#D4AF5D" opacity="1.000000" stroke="none" 
	d="
M82.934479,75.944168 
	C79.999725,68.779839 77.064972,61.615505 74.205139,53.755230 
	C74.951157,52.862808 76.017105,52.297703 76.231644,52.527493 
	C78.145485,54.577389 79.909050,56.767582 81.716873,58.916454 
	C83.174545,62.988449 84.632217,67.060448 85.977615,71.770752 
	C85.908905,73.273567 85.952469,74.138077 85.998055,75.001251 
	C86.000076,74.999931 86.004509,74.995407 85.682236,75.031845 
	C84.551460,75.360245 83.742966,75.652206 82.934479,75.944168 
z"/>
<path fill="#B89A4F" opacity="1.000000" stroke="none" 
	d="
M102.001976,109.977821 
	C104.804321,112.820198 104.587128,109.502945 105.798599,108.399902 
	C107.048599,110.641869 107.909927,112.791138 108.771255,114.940399 
	C107.213867,119.064186 105.656479,123.187981 103.637924,128.532913 
	C101.452827,123.492981 99.762321,119.593834 98.392395,115.205521 
	C102.279221,114.851204 102.040657,112.345146 102.001976,109.977821 
z"/>
<path fill="#BFA356" opacity="1.000000" stroke="none" 
	d="
M122.002457,47.115383 
	C122.743996,46.141605 123.485527,45.167831 124.549095,44.326012 
	C125.810997,48.165970 127.788033,45.497810 129.380875,45.191536 
	C126.063721,52.168400 132.549652,49.063080 135.365005,50.694359 
	C134.309769,52.297462 133.292664,53.842667 131.848541,55.536880 
	C130.967178,54.643177 130.512817,53.600468 130.152313,52.773163 
	C128.618607,52.848957 127.331604,52.912560 126.081741,52.631351 
	C126.202171,51.283203 126.285469,50.279861 126.335945,49.671814 
	C117.685509,51.547333 109.341476,51.536572 100.972336,50.613934 
	C101.018456,50.012619 101.046761,49.667763 101.531555,49.238503 
	C107.478622,49.175396 112.973663,49.319977 118.456314,49.121754 
	C119.660965,49.078201 120.821571,47.816254 122.002457,47.115383 
z"/>
<path fill="#BFA356" opacity="1.000000" stroke="none" 
	d="
M130.175888,109.974136 
	C132.249146,104.787964 134.322403,99.601791 136.873215,94.427040 
	C138.216370,94.602531 139.081970,94.766609 139.947571,94.930687 
	C138.988449,99.745819 138.231674,104.614311 136.982208,109.352882 
	C136.384811,111.618431 134.852921,113.637573 133.396332,115.521568 
	C131.760284,113.687073 135.688782,109.272423 130.175888,109.974136 
z"/>
<path fill="#C29A3C" opacity="1.000000" stroke="none" 
	d="
M130.066711,110.475052 
	C135.688782,109.272423 131.760284,113.687073 133.081909,115.680115 
	C132.006393,119.379189 130.897308,122.672958 129.788239,125.966728 
	C129.275177,126.071922 128.762115,126.177116 128.249054,126.282310 
	C127.159012,123.472321 126.068977,120.662323 124.980026,117.123711 
	C124.507988,113.516785 124.034866,110.638474 123.474434,107.229004 
	C124.918221,108.281937 126.055496,109.111336 127.192772,109.940735 
	C127.192772,109.940735 127.100197,109.937256 127.076752,110.218361 
	C127.794579,111.297249 128.535843,112.095032 129.277115,112.892807 
	C129.503906,112.253860 129.730713,111.614922 130.066711,110.475052 
z"/>
<path fill="#1F1927" opacity="1.000000" stroke="none" 
	d="
M143.073593,176.870392 
	C147.326263,176.308411 151.669724,174.928452 155.809021,175.387863 
	C161.196274,175.985779 158.173416,180.287125 158.005844,183.600433 
	C158.000000,184.000000 158.003586,183.995071 158.003586,183.995071 
	C155.929581,183.297623 153.855560,182.600174 151.404114,181.627670 
	C150.362320,180.904984 149.697968,180.457352 149.033630,180.009735 
	C148.894302,180.248932 148.754974,180.488129 148.615662,180.727325 
	C148.985443,181.419403 149.355225,182.111465 149.434250,182.868530 
	C148.375992,182.861893 147.608490,182.790268 146.681366,182.393799 
	C145.372345,180.336105 144.222961,178.603241 143.073593,176.870392 
z"/>
<path fill="#D7AC4B" opacity="1.000000" stroke="none" 
	d="
M100.954521,50.870388 
	C109.341476,51.536572 117.685509,51.547333 126.335945,49.671814 
	C126.285469,50.279861 126.202171,51.283203 125.758148,52.609390 
	C124.272789,53.219521 123.148170,53.506802 121.572067,53.861542 
	C115.905563,54.592918 110.690529,55.256832 105.136902,55.970901 
	C103.019623,55.382942 101.240952,54.744823 99.462273,54.106705 
	C99.462273,54.106705 99.275780,53.706795 99.491470,53.445564 
	C99.707153,53.184338 100.049103,52.994476 100.259796,52.807716 
	C100.608902,52.090004 100.747322,51.559055 100.900589,50.987652 
	C100.915436,50.947201 100.954521,50.870388 100.954521,50.870388 
z"/>
<path fill="#C19D4D" opacity="1.000000" stroke="none" 
	d="
M81.776176,58.507263 
	C79.909050,56.767582 78.145485,54.577389 76.231644,52.527493 
	C76.017105,52.297703 74.951157,52.862808 74.201813,53.369583 
	C73.574356,52.394093 73.025116,51.108315 72.212608,49.206219 
	C77.000038,49.206219 81.073341,49.046806 85.117722,49.318272 
	C86.129189,49.386162 87.937660,51.009174 87.821655,51.622952 
	C87.587006,52.864460 86.381653,54.745403 85.403976,54.857521 
	C83.155685,55.115353 81.530167,55.320335 81.776176,58.507263 
z"/>
<path fill="#BCA263" opacity="1.000000" stroke="none" 
	d="
M127.173309,109.546867 
	C126.055496,109.111336 124.918221,108.281937 123.474434,107.229004 
	C124.034866,110.638474 124.507988,113.516785 124.938232,116.747086 
	C122.688927,112.298874 120.482498,107.498672 118.535599,102.272491 
	C118.974091,100.364227 119.153038,98.881950 119.354721,97.211296 
	C120.351341,97.476006 121.636253,97.817291 122.921173,98.158569 
	C124.332062,101.823380 125.742958,105.488190 127.173309,109.546867 
z"/>
<path fill="#BCA263" opacity="1.000000" stroke="none" 
	d="
M108.949280,114.620941 
	C107.909927,112.791138 107.048599,110.641869 106.037781,108.155960 
	C107.139610,104.276451 108.390938,100.733597 109.900856,96.458580 
	C112.881470,99.507736 114.255905,102.038429 112.553284,105.682152 
	C111.246696,108.478348 110.257607,111.422905 108.949280,114.620941 
z"/>
<path fill="#F0F4F7" opacity="1.000000" stroke="none" 
	d="
M129.852402,140.034882 
	C130.740143,139.522049 131.627869,139.009232 132.983185,138.226303 
	C132.983185,146.345535 132.954590,153.820892 133.002228,161.295761 
	C133.014969,163.295059 132.737244,164.699982 130.105972,162.878876 
	C129.930435,154.706772 129.891418,147.370819 129.852402,140.034882 
z"/>
<path fill="#D5B467" opacity="1.000000" stroke="none" 
	d="
M122.023544,53.794083 
	C123.148170,53.506802 124.272789,53.219521 125.721008,52.954201 
	C127.331604,52.912560 128.618607,52.848957 130.152313,52.773163 
	C130.512817,53.600468 130.967178,54.643177 131.662659,55.831158 
	C130.526642,59.579185 129.149490,63.181946 127.181381,66.722061 
	C126.350883,64.057884 126.111366,61.456356 125.909927,58.881187 
	C125.948013,58.907543 125.900650,58.986721 126.173920,58.750324 
	C126.609764,57.817734 126.772331,57.121540 126.804947,56.128914 
	C125.124512,55.153011 123.574028,54.473545 122.023544,53.794083 
z"/>
<path fill="#EFDA98" opacity="1.000000" stroke="none" 
	d="
M91.851341,98.238899 
	C89.917015,93.750603 87.982697,89.262299 86.221771,84.219147 
	C87.411705,84.852203 88.428246,86.040123 89.801247,87.644585 
	C90.153854,85.077286 90.428375,83.078545 90.702896,81.079811 
	C91.853340,85.472176 93.003784,89.864532 93.868164,94.761002 
	C93.005180,96.256371 92.428261,97.247635 91.851341,98.238899 
z"/>
<path fill="#DBC485" opacity="1.000000" stroke="none" 
	d="
M90.678596,80.718903 
	C90.428375,83.078545 90.153854,85.077286 89.801247,87.644585 
	C88.428246,86.040123 87.411705,84.852203 86.181091,83.830658 
	C84.781464,81.408600 83.595917,78.820183 82.672424,76.087967 
	C83.742966,75.652206 84.551460,75.360245 85.690750,75.255737 
	C86.124283,75.701042 86.227020,75.958878 86.329758,76.216721 
	C86.445793,76.141907 86.561836,76.067093 86.677872,75.992287 
	C86.450592,75.662384 86.223320,75.332481 85.996033,75.002579 
	C85.952469,74.138077 85.908905,73.273567 85.997284,72.166931 
	C87.637589,74.735855 89.145943,77.546921 90.678596,80.718903 
z"/>
<path fill="#1F1927" opacity="1.000000" stroke="none" 
	d="
M127.938492,178.109863 
	C129.755646,177.303024 131.525284,175.994232 133.401993,175.816574 
	C135.739700,175.595261 138.165741,176.307114 140.773865,177.251068 
	C140.532700,178.205551 140.026291,178.843582 139.618164,178.785919 
	C138.277420,178.596466 136.972336,178.154633 135.653549,177.809753 
	C136.104858,179.463074 136.556152,181.116409 137.007462,182.769730 
	C133.842102,185.925705 130.166611,184.834274 126.238907,183.769684 
	C126.096481,183.226257 126.319534,183.032913 126.922729,182.789032 
	C127.482971,182.052689 127.742020,181.457993 128.290039,181.044312 
	C129.493454,181.689270 130.407928,182.153198 131.754303,182.836243 
	C131.754303,180.806610 131.754303,179.386993 131.754303,177.768265 
	C130.403122,178.230453 129.211639,178.638031 128.000702,178.811584 
	C127.981247,178.577560 127.938492,178.109863 127.938492,178.109863 
z"/>
<path fill="#0E173C" opacity="1.000000" stroke="none" 
	d="
M122.182678,80.840790 
	C117.628143,81.118683 120.891525,84.568779 119.672546,86.634453 
	C118.933334,86.630768 118.482201,86.309647 117.959557,85.630341 
	C116.226105,81.186867 114.564178,77.101578 112.915909,72.721100 
	C112.873405,72.036324 112.817238,71.646721 113.107422,71.238800 
	C115.353928,71.827904 117.254097,72.435333 119.188644,73.395966 
	C120.209579,76.113037 121.196129,78.476913 122.182678,80.840790 
z"/>
<path fill="#EFDA98" opacity="1.000000" stroke="none" 
	d="
M112.902252,73.016289 
	C114.564178,77.101578 116.226105,81.186867 117.625000,85.701996 
	C116.139343,87.147057 114.916718,88.162277 113.694092,89.177498 
	C112.024139,85.054184 110.354187,80.930862 108.949295,76.423492 
	C110.443649,75.031723 111.672951,74.024010 112.902252,73.016289 
z"/>
<path fill="#D4AF5D" opacity="1.000000" stroke="none" 
	d="
M151.404083,56.025635 
	C150.210281,55.676826 148.731583,55.644463 147.898773,54.894688 
	C146.972595,54.060848 146.169693,52.560097 146.203552,51.375118 
	C146.226334,50.577209 147.785202,49.182869 148.671204,49.171505 
	C151.203445,49.139027 153.801361,49.464088 156.239838,50.134460 
	C156.872955,50.308517 157.016678,52.262798 156.883163,53.939163 
	C154.722122,54.994507 153.063095,55.510071 151.404083,56.025635 
z"/>
<path fill="#E0BF74" opacity="1.000000" stroke="none" 
	d="
M151.254471,56.379929 
	C153.063095,55.510071 154.722122,54.994507 156.654816,54.284622 
	C155.401245,58.255459 153.873978,62.420612 152.164062,66.770309 
	C151.139130,66.369881 150.296844,65.784904 149.163452,65.082077 
	C149.616501,62.220894 150.360687,59.477562 151.254471,56.379929 
z"/>
<path fill="#D5BA7E" opacity="1.000000" stroke="none" 
	d="
M112.915909,72.721100 
	C111.672951,74.024010 110.443649,75.031723 108.828773,76.054565 
	C106.718826,71.983200 104.994461,67.896706 103.468758,63.442978 
	C103.667419,63.075752 104.052696,63.046974 104.315643,63.262440 
	C105.598640,65.509010 106.618683,67.540123 107.638725,69.571228 
	C107.970551,69.489777 108.302368,69.408318 108.634186,69.326859 
	C108.803162,67.491898 108.972137,65.656929 109.332947,63.869854 
	C109.524788,63.917747 109.903679,64.030167 109.983932,64.372963 
	C110.469482,65.809227 110.874786,66.902695 111.307617,68.299866 
	C111.821281,69.474129 112.307426,70.344688 112.791336,71.229538 
	C112.789116,71.243835 112.761070,71.257126 112.761070,71.257126 
	C112.817238,71.646721 112.873405,72.036324 112.915909,72.721100 
z"/>
<path fill="#998656" opacity="1.000000" stroke="none" 
	d="
M137.369110,182.847473 
	C136.556152,181.116409 136.104858,179.463074 135.653549,177.809753 
	C136.972336,178.154633 138.277420,178.596466 139.618164,178.785919 
	C140.026291,178.843582 140.532700,178.205551 141.001907,177.544708 
	C141.461960,177.081955 141.914215,176.960617 142.720032,176.854843 
	C144.222961,178.603241 145.372345,180.336105 146.183685,182.494339 
	C145.513474,182.977921 145.181290,183.036118 144.849121,183.094330 
	C142.419250,185.440582 140.099274,183.160873 137.369110,182.847473 
z"/>
<path fill="#E3CD98" opacity="1.000000" stroke="none" 
	d="
M122.476616,80.666389 
	C121.196129,78.476913 120.209579,76.113037 119.496170,73.230392 
	C119.914795,71.796173 120.060287,70.880722 120.516830,70.048431 
	C121.533485,70.954407 122.239082,71.777206 122.856049,72.496651 
	C124.269150,70.961548 125.558823,69.560539 126.848495,68.159523 
	C125.489182,72.270348 124.129868,76.381165 122.476616,80.666389 
z"/>
<path fill="#E0BF74" opacity="1.000000" stroke="none" 
	d="
M140.168304,94.680511 
	C139.081970,94.766609 138.216370,94.602531 137.126495,94.185989 
	C137.879684,91.152321 138.857147,88.371124 139.996170,85.248184 
	C141.611710,85.588646 143.065704,86.270851 144.834351,87.013268 
	C143.562363,89.525764 141.975693,91.978050 140.168304,94.680511 
z"/>
<path fill="#D5B467" opacity="1.000000" stroke="none" 
	d="
M91.885208,98.608490 
	C92.428261,97.247635 93.005180,96.256371 93.841660,95.039398 
	C95.746956,97.291351 97.392685,99.769012 98.681747,102.477203 
	C95.704430,101.580765 94.547821,102.158249 95.620712,105.115479 
	C95.995285,106.147934 96.593208,107.099365 97.093933,108.349045 
	C97.078796,109.404709 97.058861,110.199112 97.038918,110.993515 
	C95.332306,106.988365 93.625694,102.983223 91.885208,98.608490 
z"/>
<path fill="#DBC485" opacity="1.000000" stroke="none" 
	d="
M113.776428,89.530029 
	C114.916718,88.162277 116.139343,87.147057 117.696518,86.060181 
	C118.482201,86.309647 118.933334,86.630768 119.650818,87.028412 
	C120.225220,88.830170 120.533257,90.555420 120.510262,92.606354 
	C115.682030,91.256920 117.471382,94.980484 116.936493,96.708076 
	C115.910576,94.432907 114.884666,92.157738 113.776428,89.530029 
z"/>
<path fill="#E0BF74" opacity="1.000000" stroke="none" 
	d="
M126.941116,67.905548 
	C125.558823,69.560539 124.269150,70.961548 122.856049,72.496651 
	C122.239082,71.777206 121.533485,70.954407 120.601105,69.711670 
	C121.957062,65.857697 123.539787,62.423649 125.308266,58.947132 
	C125.494019,58.904663 125.871841,58.854828 125.871841,58.854828 
	C126.111366,61.456356 126.350883,64.057884 126.871414,66.891762 
	C127.112869,67.299934 127.073303,67.475761 126.941116,67.905548 
z"/>
<path fill="#D5B467" opacity="1.000000" stroke="none" 
	d="
M116.965500,97.105209 
	C117.471382,94.980484 115.682030,91.256920 120.520538,92.986115 
	C121.530617,94.511719 122.199387,95.983238 122.894669,97.806656 
	C121.636253,97.817291 120.351341,97.476006 119.354721,97.211296 
	C119.153038,98.881950 118.974091,100.364227 118.481781,101.909866 
	C117.777122,100.482925 117.385818,98.992630 116.965500,97.105209 
z"/>
<path fill="#C19D4D" opacity="1.000000" stroke="none" 
	d="
M129.669907,44.909859 
	C127.788033,45.497810 125.810997,48.165970 124.801186,44.139420 
	C124.731247,43.820873 124.806847,43.868061 125.086105,43.714645 
	C125.543610,42.649101 125.721855,41.736977 125.900108,40.824852 
	C127.435448,40.570568 128.970779,40.316284 130.506119,40.061996 
	C130.323730,41.584061 130.141342,43.106121 129.669907,44.909859 
z"/>
<path fill="#7F7353" opacity="1.000000" stroke="none" 
	d="
M118.801346,184.864792 
	C117.103302,184.387665 115.405258,183.910522 113.707230,183.433395 
	C114.393715,181.208740 115.080200,178.984070 115.908577,177.243347 
	C116.067291,178.138596 116.084114,178.549881 116.100937,178.961182 
	C116.079674,179.409210 116.058411,179.857254 116.023651,181.016098 
	C117.027206,182.144745 118.044243,182.562561 119.032242,182.989319 
	C119.003212,182.998230 119.025528,182.941727 118.968231,183.259979 
	C118.874397,184.007095 118.837868,184.435944 118.801346,184.864792 
z"/>
<path fill="#B2976B" opacity="1.000000" stroke="none" 
	d="
M120.446968,177.166306 
	C121.589615,176.908386 122.732262,176.650452 124.291809,176.514832 
	C125.128067,177.094208 125.547424,177.551285 125.574890,178.126709 
	C124.922035,178.324936 124.661079,178.404800 124.122414,178.338715 
	C123.104980,178.680115 122.365257,179.167450 121.625908,179.689331 
	C121.626282,179.723862 121.651390,179.788208 121.420692,179.915894 
	C121.205315,180.384766 121.220634,180.725952 121.240463,181.345901 
	C121.476486,182.125488 121.707993,182.626312 121.831299,183.307220 
	C121.535454,183.701462 121.312599,183.868713 120.785072,183.856842 
	C120.018921,183.463654 119.522224,183.202682 119.025528,182.941727 
	C119.025528,182.941727 119.003212,182.998230 119.134361,182.602966 
	C119.317047,180.897095 119.368584,179.586472 119.420120,178.275848 
	C119.420120,178.275848 119.323692,178.179749 119.560730,178.138153 
	C120.014160,177.786469 120.230568,177.476379 120.446968,177.166306 
z"/>
<path fill="#010125" opacity="1.000000" stroke="none" 
	d="
M121.615738,47.255791 
	C120.821571,47.816254 119.660965,49.078201 118.456314,49.121754 
	C112.973663,49.319977 107.478622,49.175396 101.262253,49.143993 
	C100.356133,49.074577 100.175804,49.015266 99.995468,48.955948 
	C103.998283,48.644230 108.000229,48.320744 112.004196,48.024597 
	C115.077812,47.797268 118.153984,47.604397 121.615738,47.255791 
z"/>
<path fill="#010125" opacity="1.000000" stroke="none" 
	d="
M129.600220,140.359222 
	C129.891418,147.370819 129.930435,154.706772 129.909409,162.505829 
	C129.682266,155.540482 129.515152,148.112030 129.600220,140.359222 
z"/>
<path fill="#0E173C" opacity="1.000000" stroke="none" 
	d="
M43.806488,138.910217 
	C42.709217,139.259872 41.615189,139.259872 40.252125,139.259872 
	C40.862698,140.876526 41.327442,142.107071 41.796597,143.676041 
	C40.345013,142.877121 38.889019,141.739777 37.433025,140.602417 
	C37.519928,139.956314 37.606827,139.310211 37.693729,138.664108 
	C39.732395,138.629593 41.771065,138.595078 43.806488,138.910217 
z"/>
<path fill="#D4AF5D" opacity="1.000000" stroke="none" 
	d="
M97.089134,108.087791 
	C96.593208,107.099365 95.995285,106.147934 95.620712,105.115479 
	C94.547821,102.158249 95.704430,101.580765 98.640709,102.847183 
	C98.956329,102.986633 99.128532,103.353493 99.078674,103.962830 
	C99.023193,105.389023 99.017570,106.205872 98.839249,107.251831 
	C98.140755,107.683235 97.614944,107.885513 97.089134,108.087791 
z"/>
<path fill="#B2976B" opacity="1.000000" stroke="none" 
	d="
M99.532082,54.476372 
	C101.240952,54.744823 103.019623,55.382942 105.300598,55.977741 
	C106.031036,56.061241 106.109634,56.250309 106.021736,56.866470 
	C105.989990,57.474358 105.975204,57.717403 105.592651,57.959850 
	C104.505493,58.956581 103.786087,59.953915 102.950882,61.046188 
	C102.835083,61.141129 102.602882,61.330276 102.602890,61.330276 
	C101.602554,59.168865 100.602219,57.007454 99.532082,54.476372 
z"/>
<path fill="#998656" opacity="1.000000" stroke="none" 
	d="
M124.400116,178.484665 
	C124.661079,178.404800 124.922035,178.324936 125.794388,178.218948 
	C126.405769,178.192825 126.881798,178.206879 126.881798,178.206879 
	C126.881798,178.206879 126.856506,178.113571 126.833054,178.537659 
	C126.746902,180.284729 126.684219,181.607712 126.621536,182.930679 
	C126.319534,183.032913 126.096481,183.226257 125.861237,183.718002 
	C124.504005,184.243317 123.237900,184.561325 121.556412,184.662659 
	C121.141022,184.445969 121.054535,183.989044 121.054535,183.989044 
	C121.312599,183.868713 121.535454,183.701462 122.168701,183.312134 
	C123.040276,183.020355 123.466248,182.903778 124.160721,182.588531 
	C124.419518,181.088150 124.409821,179.786407 124.400116,178.484665 
z"/>
<path fill="#D4AF5D" opacity="1.000000" stroke="none" 
	d="
M101.975479,109.735382 
	C102.040657,112.345146 102.279221,114.851204 98.451294,114.829071 
	C97.820694,114.187881 97.451767,113.433960 97.476608,112.332954 
	C98.992233,110.945839 100.114082,109.905815 101.235931,108.865784 
	C101.572708,108.962189 101.810394,109.171242 101.975479,109.735382 
z"/>
<path fill="#B89A4F" opacity="1.000000" stroke="none" 
	d="
M101.223938,108.543839 
	C100.114082,109.905815 98.992233,110.945839 97.519272,112.010101 
	C97.109085,111.865463 97.049988,111.696609 97.014908,111.260635 
	C97.058861,110.199112 97.078796,109.404709 97.093933,108.349045 
	C97.614944,107.885513 98.140755,107.683235 99.157166,107.252930 
	C100.071747,107.010254 100.495712,106.995598 100.919685,106.980949 
	C101.017097,107.394592 101.114517,107.808243 101.223938,108.543839 
z"/>
<path fill="#7F7353" opacity="1.000000" stroke="none" 
	d="
M145.057831,183.383514 
	C145.181290,183.036118 145.513474,182.977921 146.343323,182.819183 
	C147.608490,182.790268 148.375992,182.861893 149.584366,183.087402 
	C150.291504,183.469254 150.557755,183.697220 150.824005,183.925186 
	C148.971527,183.841034 147.119034,183.756882 145.057831,183.383514 
z"/>
<path fill="#1F1927" opacity="1.000000" stroke="none" 
	d="
M119.093208,178.353516 
	C119.368584,179.586472 119.317047,180.897095 119.163391,182.594055 
	C118.044243,182.562561 117.027206,182.144745 116.044617,181.351990 
	C116.974808,180.128448 117.870552,179.279816 119.093208,178.353516 
z"/>
<path fill="#B2976B" opacity="1.000000" stroke="none" 
	d="
M99.691086,49.044163 
	C100.175804,49.015266 100.356133,49.074577 100.805763,49.228394 
	C101.046761,49.667763 101.018456,50.012619 100.972336,50.613934 
	C100.954521,50.870388 100.915436,50.947201 100.678757,51.161423 
	C100.311089,51.915253 100.180092,52.454865 100.049103,52.994476 
	C100.049103,52.994476 99.707153,53.184338 99.515701,53.226273 
	C98.915390,52.101631 98.506538,50.935055 98.051773,49.384689 
	C98.005859,49.000904 98.122253,49.105862 98.122253,49.105862 
	C98.543739,49.114697 98.965218,49.123535 99.691086,49.044163 
z"/>
<path fill="#0E173C" opacity="1.000000" stroke="none" 
	d="
M45.939796,144.714172 
	C45.227924,143.370163 44.538601,141.622101 43.779831,139.519577 
	C44.461037,140.880112 45.211689,142.595108 45.939796,144.714172 
z"/>
<path fill="#998656" opacity="1.000000" stroke="none" 
	d="
M150.909302,183.603485 
	C150.557755,183.697220 150.291504,183.469254 149.875137,183.022415 
	C149.355225,182.111465 148.985443,181.419403 148.615662,180.727325 
	C148.754974,180.488129 148.894302,180.248932 149.033630,180.009735 
	C149.697968,180.457352 150.362320,180.904984 151.097504,181.656342 
	C151.110413,182.400635 151.052490,182.841202 150.909302,183.603485 
z"/>
<path fill="#BCA263" opacity="1.000000" stroke="none" 
	d="
M129.150421,112.602936 
	C128.535843,112.095032 127.794579,111.297249 127.090218,110.174042 
	C127.759323,110.670105 128.391525,111.491592 129.150421,112.602936 
z"/>
<path fill="#010125" opacity="1.000000" stroke="none" 
	d="
M126.922729,182.789032 
	C126.684219,181.607712 126.746902,180.284729 126.792946,178.564636 
	C126.969124,178.136688 127.161957,178.105835 127.646645,178.092422 
	C127.938492,178.109863 127.981247,178.577560 128.003601,179.114868 
	C128.017639,180.055878 128.009338,180.459595 128.001068,180.863297 
	C127.742020,181.457993 127.482971,182.052689 126.922729,182.789032 
z"/>
<path fill="#D5B467" opacity="1.000000" stroke="none" 
	d="
M100.875412,106.662781 
	C100.495712,106.995598 100.071747,107.010254 99.329865,107.023819 
	C99.017570,106.205872 99.023193,105.389023 99.057938,104.164398 
	C99.668419,104.619286 100.249786,105.481941 100.875412,106.662781 
z"/>
<path fill="#0E173C" opacity="1.000000" stroke="none" 
	d="
M47.900429,150.134644 
	C47.492794,149.676819 47.106506,148.817902 46.630577,147.608932 
	C47.001213,148.083771 47.461498,148.908661 47.900429,150.134644 
z"/>
<path fill="#BFA356" opacity="1.000000" stroke="none" 
	d="
M125.652130,41.057671 
	C125.721855,41.736977 125.543610,42.649101 125.054611,43.746162 
	C124.963959,43.050900 125.184059,42.170692 125.652130,41.057671 
z"/>
<path fill="#1F1927" opacity="1.000000" stroke="none" 
	d="
M120.785072,183.856842 
	C121.054535,183.989044 121.141022,184.445969 121.219208,184.665222 
	C120.741776,184.902832 120.186150,184.921173 119.215942,184.902161 
	C118.837868,184.435944 118.874397,184.007095 118.968231,183.259979 
	C119.522224,183.202682 120.018921,183.463654 120.785072,183.856842 
z"/>
<path fill="#010125" opacity="1.000000" stroke="none" 
	d="
M94.910217,179.600281 
	C94.908264,179.874298 94.484100,179.923981 93.947769,179.945038 
	C92.961243,179.634628 92.511055,179.303162 92.416306,178.957520 
	C93.479134,178.888397 94.186523,178.833481 94.893921,178.778564 
	C94.900002,178.961121 94.906090,179.143692 94.910217,179.600281 
z"/>
<path fill="#7F7353" opacity="1.000000" stroke="none" 
	d="
M94.866821,178.659760 
	C94.186523,178.833481 93.479134,178.888397 92.400574,178.686523 
	C92.040451,178.248642 92.051483,178.067581 92.062515,177.886536 
	C92.761482,177.982727 93.460457,178.078918 94.506317,178.236359 
	C94.853210,178.297592 94.839729,178.540955 94.866821,178.659760 
z"/>
<path fill="#010125" opacity="1.000000" stroke="none" 
	d="
M126.847794,177.824738 
	C126.881798,178.206879 126.405769,178.192825 126.186272,178.100586 
	C125.547424,177.551285 125.128067,177.094208 124.547363,176.360931 
	C125.195274,176.537369 126.004539,176.989990 126.847794,177.824738 
z"/>
<path fill="#B2976B" opacity="1.000000" stroke="none" 
	d="
M104.052696,63.046974 
	C104.052696,63.046974 103.667419,63.075752 103.474426,63.068329 
	C103.105522,62.685555 102.929619,62.310200 102.678299,61.632561 
	C102.602882,61.330276 102.835083,61.141129 103.130814,61.188454 
	C103.654274,61.446812 103.831383,61.694099 103.970779,62.245934 
	C104.006706,62.691807 104.029701,62.869389 104.052696,63.046974 
z"/>
<path fill="#1F1927" opacity="1.000000" stroke="none" 
	d="
M116.290695,178.813141 
	C116.084114,178.549881 116.067291,178.138596 116.077957,177.420044 
	C116.230446,177.630234 116.355446,178.147675 116.290695,178.813141 
z"/>
<path fill="#0E173C" opacity="1.000000" stroke="none" 
	d="
M46.683094,146.989716 
	C46.354973,146.760788 46.112846,146.208328 45.874779,145.345795 
	C46.175583,145.579208 46.472336,146.122696 46.683094,146.989716 
z"/>
<path fill="#1F1927" opacity="1.000000" stroke="none" 
	d="
M157.997559,184.001816 
	C157.995117,184.003632 158.410645,184.243088 158.410645,184.243088 
	C158.410645,184.243088 158.105682,184.225723 158.054626,184.110397 
	C158.003586,183.995071 158.000000,184.000000 157.997559,184.001816 
z"/>
<path fill="#010125" opacity="1.000000" stroke="none" 
	d="
M98.055267,49.060669 
	C97.995461,48.984447 97.886246,48.848469 97.777031,48.712490 
	C97.844109,48.765633 97.911179,48.818775 98.050255,48.988892 
	C98.122253,49.105862 98.005859,49.000904 98.055267,49.060669 
z"/>
<path fill="#1F1927" opacity="1.000000" stroke="none" 
	d="
M120.153839,177.238693 
	C120.230568,177.476379 120.014160,177.786469 119.531921,178.199829 
	C119.464302,177.972427 119.662514,177.641754 120.153839,177.238693 
z"/>
<path fill="#0A1548" opacity="1.000000" stroke="none" 
	d="
M148.732193,142.830856 
	C150.930191,143.039673 152.770828,143.046585 154.427475,143.602158 
	C154.765259,143.715424 154.815491,146.108826 154.296188,147.072998 
	C153.030121,149.423660 150.666031,151.428314 148.381699,149.318466 
	C147.289581,148.309753 148.268784,145.058411 148.732193,142.830856 
z"/>
<path fill="#1D2145" opacity="1.000000" stroke="none" 
	d="
M88.040359,146.012756 
	C89.571861,148.452866 90.727058,150.963730 92.021744,153.777802 
	C89.313896,153.777802 87.055305,153.777802 84.216988,153.777802 
	C85.442673,151.041916 86.553368,148.562714 88.040359,146.012756 
z"/>
<path fill="#1D2145" opacity="1.000000" stroke="none" 
	d="
M174.929031,146.787506 
	C176.662369,148.512100 178.268112,150.608475 180.550354,153.588058 
	C177.004318,153.588058 174.841919,153.588058 172.010742,153.588058 
	C172.950836,151.422394 173.876144,149.290833 174.929031,146.787506 
z"/>
<path fill="#B2976B" opacity="1.000000" stroke="none" 
	d="
M83.215752,184.012390 
	C82.991089,184.285492 82.766426,184.558594 82.203995,184.638153 
	C81.745842,184.211288 81.562454,184.049179 81.270126,183.637390 
	C81.272346,182.887436 81.320511,182.458435 81.527794,181.855499 
	C81.588341,181.112289 81.489769,180.542984 81.351288,179.653503 
	C81.329468,178.904388 81.347557,178.475433 81.522408,177.942459 
	C81.843651,177.644043 81.964088,177.425400 82.040482,177.182495 
	C83.133904,178.126831 84.227325,179.071152 85.607185,180.467224 
	C85.932747,181.266708 85.971870,181.614426 85.939743,182.168121 
	C85.745422,182.644318 85.566696,182.870590 85.133469,182.801178 
	C84.487984,181.946274 84.041328,181.343063 83.215752,180.228119 
	C83.215752,181.936462 83.215752,182.974426 83.215752,184.012390 
z"/>
<path fill="#7F7353" opacity="1.000000" stroke="none" 
	d="
M73.960236,184.082840 
	C72.651009,183.955627 71.341789,183.828400 69.819351,183.680466 
	C68.988075,180.547897 68.748535,177.978378 73.574081,178.262878 
	C73.971634,178.639099 73.977768,178.822388 73.597229,178.988449 
	C71.353264,180.723343 70.826653,182.219162 73.979469,183.274216 
	C73.967720,183.723419 73.963982,183.903137 73.960236,184.082840 
z"/>
<path fill="#998656" opacity="1.000000" stroke="none" 
	d="
M74.095779,184.267334 
	C73.963982,183.903137 73.967720,183.723419 74.137802,183.007660 
	C74.197395,181.316299 74.090652,180.160980 73.983902,179.005676 
	C73.977768,178.822388 73.971634,178.639099 73.959946,178.180756 
	C74.604012,177.940399 75.253632,177.975128 76.247940,178.468903 
	C76.513092,180.579559 76.433548,182.231155 76.354004,183.882736 
	C75.646454,184.072433 74.938896,184.262131 74.095779,184.267334 
z"/>
<path fill="#998656" opacity="1.000000" stroke="none" 
	d="
M77.832336,178.010681 
	C78.314537,177.686279 78.796738,177.361893 79.630066,177.487869 
	C79.953773,180.268768 79.926361,182.599289 79.898941,184.929810 
	C79.314407,184.800140 78.729874,184.670471 78.033798,183.841263 
	C77.892281,181.431366 77.862305,179.721024 77.832336,178.010681 
z"/>
<path fill="#998656" opacity="1.000000" stroke="none" 
	d="
M91.916725,177.616821 
	C92.051483,178.067581 92.040451,178.248642 92.045143,178.700714 
	C92.511055,179.303162 92.961243,179.634628 93.736153,179.973663 
	C94.076454,180.424728 94.092041,180.868271 93.723053,181.635437 
	C92.926750,182.280594 92.515038,182.602127 92.103317,182.923660 
	C92.056221,183.102310 92.009117,183.280975 91.651123,183.446960 
	C90.898232,181.626282 90.456223,179.818298 89.968582,177.761322 
	C89.950188,177.345779 89.977409,177.179245 90.004639,177.012695 
	C90.593407,177.124161 91.182175,177.235641 91.916725,177.616821 
z"/>
<path fill="#1F1927" opacity="1.000000" stroke="none" 
	d="
M89.656647,177.008820 
	C89.977409,177.179245 89.950188,177.345779 89.880188,178.045288 
	C89.773872,178.766083 89.710320,178.953918 89.457787,179.450134 
	C89.169304,181.507919 89.069817,183.257309 88.970322,185.006714 
	C88.787964,184.996567 88.605606,184.986404 88.199966,184.583069 
	C87.947952,183.458496 87.919205,182.727081 87.955620,181.589661 
	C87.987099,179.818970 87.953423,178.454315 87.919746,177.089645 
	C88.382713,177.061417 88.845688,177.033173 89.656647,177.008820 
z"/>
<path fill="#BCA263" opacity="1.000000" stroke="none" 
	d="
M89.646774,179.141739 
	C89.710320,178.953918 89.773872,178.766083 89.925812,178.294281 
	C90.456223,179.818298 90.898232,181.626282 91.569504,183.711823 
	C91.423676,184.308990 91.048576,184.628586 90.305458,184.541870 
	C89.840546,182.470947 89.743660,180.806335 89.646774,179.141739 
z"/>
<path fill="#010125" opacity="1.000000" stroke="none" 
	d="
M80.212402,184.939423 
	C79.926361,182.599289 79.953773,180.268768 79.945343,177.504166 
	C80.115601,177.061523 80.321701,177.052948 80.832886,177.309784 
	C81.213867,177.732300 81.289757,177.889404 81.365639,178.046494 
	C81.347557,178.475433 81.329468,178.904388 81.239075,179.989059 
	C81.234062,181.106339 81.301369,181.567871 81.368675,182.029419 
	C81.320511,182.458435 81.272346,182.887436 81.182007,183.873108 
	C81.144180,184.597519 81.148529,184.765289 81.152878,184.933075 
	C80.943871,184.938385 80.734871,184.943695 80.212402,184.939423 
z"/>
<path fill="#B89A4F" opacity="1.000000" stroke="none" 
	d="
M87.890465,181.995682 
	C87.919205,182.727081 87.947952,183.458496 87.927673,184.552811 
	C87.186134,184.675476 86.493607,184.435211 85.565216,183.818542 
	C85.329346,183.442123 85.332298,183.052902 85.332298,183.052902 
	C85.566696,182.870590 85.745422,182.644318 86.190048,182.172455 
	C86.676086,181.942184 86.840553,181.913559 87.225693,181.918045 
	C87.446381,181.951157 87.890465,181.995682 87.890465,181.995682 
z"/>
<path fill="#B2976B" opacity="1.000000" stroke="none" 
	d="
M87.955620,181.589661 
	C87.890465,181.995682 87.446381,181.951157 87.219666,181.611084 
	C86.761375,180.504105 86.529793,179.737198 86.298218,178.970291 
	C86.642921,178.352783 86.987617,177.735291 87.626030,177.103714 
	C87.953423,178.454315 87.987099,179.818970 87.955620,181.589661 
z"/>
<path fill="#1F1927" opacity="1.000000" stroke="none" 
	d="
M85.133469,182.801178 
	C85.332298,183.052902 85.329346,183.442123 85.338081,183.636200 
	C84.874062,183.881134 84.401306,183.931976 83.572151,183.997620 
	C83.215752,182.974426 83.215752,181.936462 83.215752,180.228119 
	C84.041328,181.343063 84.487984,181.946274 85.133469,182.801178 
z"/>
<path fill="#1D2145" opacity="1.000000" stroke="none" 
	d="
M89.457787,179.450134 
	C89.743660,180.806335 89.840546,182.470947 90.014114,184.548706 
	C89.904366,184.974670 89.717949,184.987457 89.250931,185.003479 
	C89.069817,183.257309 89.169304,181.507919 89.457787,179.450134 
z"/>
<path fill="#010125" opacity="1.000000" stroke="none" 
	d="
M77.464607,178.031891 
	C77.862305,179.721024 77.892281,181.431366 77.883636,183.568481 
	C77.596718,183.980743 77.348427,183.966278 76.727066,183.917267 
	C76.433548,182.231155 76.513092,180.579559 76.477676,178.520844 
	C76.607445,178.093506 76.852165,178.073303 77.464607,178.031891 
z"/>
<path fill="#7F7353" opacity="1.000000" stroke="none" 
	d="
M86.167076,179.318863 
	C86.529793,179.737198 86.761375,180.504105 86.998985,181.577972 
	C86.840553,181.913559 86.676086,181.942184 86.261307,181.966492 
	C85.971870,181.614426 85.932747,181.266708 85.892502,180.658539 
	C85.939560,180.154541 85.987747,179.910980 86.167076,179.318863 
z"/>
<path fill="#091349" opacity="1.000000" stroke="none" 
	d="
M92.379807,182.907730 
	C92.515038,182.602127 92.926750,182.280594 93.638123,181.959808 
	C93.510612,182.270966 93.083450,182.581375 92.379807,182.907730 
z"/>
<path fill="#7F7353" opacity="1.000000" stroke="none" 
	d="
M81.368652,184.918884 
	C81.148529,184.765289 81.144180,184.597519 81.227951,184.194031 
	C81.562454,184.049179 81.745842,184.211288 81.933937,184.617767 
	C82.001648,184.790909 81.584419,184.904709 81.368652,184.918884 
z"/>
<path fill="#7F7353" opacity="1.000000" stroke="none" 
	d="
M81.522408,177.942459 
	C81.289757,177.889404 81.213867,177.732300 81.142273,177.313873 
	C81.146568,177.052551 81.599670,177.075867 81.820084,177.129181 
	C81.964088,177.425400 81.843651,177.644043 81.522408,177.942459 
z"/>
<path fill="#1F1927" opacity="1.000000" stroke="none" 
	d="
M106.038704,56.501621 
	C106.109634,56.250309 106.031036,56.061241 105.639198,55.927582 
	C110.690529,55.256832 115.905563,54.592918 121.572067,53.861542 
	C123.574028,54.473545 125.124512,55.153011 126.537933,56.372963 
	C126.234138,57.604538 126.067398,58.295628 125.900650,58.986721 
	C125.900650,58.986721 125.948013,58.907543 125.909927,58.881187 
	C125.871841,58.854828 125.494019,58.904663 125.240425,58.546875 
	C124.578156,57.532665 124.187462,56.319172 123.758041,56.305305 
	C119.054199,56.153458 114.339905,56.085278 109.640877,56.285789 
	C108.942131,56.315605 108.307602,57.850487 107.438148,58.539879 
	C107.117737,58.266975 107.002548,58.143265 106.869186,57.712326 
	C106.580246,57.103939 106.309471,56.802780 106.038704,56.501621 
z"/>
<path fill="#BFA356" opacity="1.000000" stroke="none" 
	d="
M100.259796,52.807716 
	C100.180092,52.454865 100.311089,51.915253 100.663910,51.201874 
	C100.747322,51.559055 100.608902,52.090004 100.259796,52.807716 
z"/>
<path fill="#E0BF74" opacity="1.000000" stroke="none" 
	d="
M126.173920,58.750324 
	C126.067398,58.295628 126.234138,57.604538 126.667892,56.669395 
	C126.772331,57.121540 126.609764,57.817734 126.173920,58.750324 
z"/>
<path fill="#D4AF5D" opacity="1.000000" stroke="none" 
	d="
M85.998062,75.001251 
	C86.223320,75.332481 86.450592,75.662384 86.677872,75.992287 
	C86.561836,76.067093 86.445793,76.141907 86.329758,76.216721 
	C86.227020,75.958878 86.124283,75.701042 86.013031,75.219299 
	C86.004509,74.995407 86.000076,74.999931 85.998062,75.001251 
z"/>
<path fill="#091349" opacity="1.000000" stroke="none" 
	d="
M128.290024,181.044312 
	C128.009338,180.459595 128.017639,180.055878 128.023041,179.348892 
	C129.211639,178.638031 130.403122,178.230453 131.754303,177.768265 
	C131.754303,179.386993 131.754303,180.806610 131.754303,182.836243 
	C130.407928,182.153198 129.493454,181.689270 128.290024,181.044312 
z"/>
<path fill="#0A1548" opacity="1.000000" stroke="none" 
	d="
M107.643364,58.689075 
	C108.307602,57.850487 108.942131,56.315605 109.640877,56.285789 
	C114.339905,56.085278 119.054199,56.153458 123.758041,56.305305 
	C124.187462,56.319172 124.578156,57.532665 125.054672,58.589344 
	C123.539787,62.423649 121.957062,65.857697 120.290054,69.628502 
	C120.060287,70.880722 119.914795,71.796173 119.461784,72.877197 
	C117.254097,72.435333 115.353928,71.827904 113.107422,71.238800 
	C112.761070,71.257126 112.789116,71.243835 112.849258,70.882744 
	C112.366302,69.679817 111.823196,68.837990 111.280083,67.996162 
	C110.874786,66.902695 110.469482,65.809227 110.017883,64.037460 
	C109.676788,62.544109 109.381996,61.729053 109.022202,60.612808 
	C108.570129,59.859901 108.183083,59.408180 107.714043,58.914639 
	C107.632050,58.872814 107.643364,58.689075 107.643364,58.689075 
z"/>
<path fill="#D4AF5D" opacity="1.000000" stroke="none" 
	d="
M104.315643,63.262440 
	C104.029701,62.869389 104.006706,62.691807 104.216705,62.096535 
	C104.960030,61.118637 105.470360,60.558430 106.238266,60.112053 
	C106.991493,60.489666 107.487144,60.753448 107.990860,61.010002 
	C107.998924,61.002773 107.982407,61.016930 108.002106,61.358013 
	C108.393211,62.461685 108.764603,63.224277 109.099472,63.944469 
	C109.062943,63.902073 109.141106,63.821960 109.141106,63.821960 
	C108.972137,65.656929 108.803162,67.491898 108.634186,69.326859 
	C108.302368,69.408318 107.970551,69.489777 107.638725,69.571228 
	C106.618683,67.540123 105.598640,65.509010 104.315643,63.262440 
z"/>
<path fill="#0E173C" opacity="1.000000" stroke="none" 
	d="
M111.307617,68.299866 
	C111.823196,68.837990 112.366302,69.679817 112.851486,70.868454 
	C112.307426,70.344688 111.821281,69.474129 111.307617,68.299866 
z"/>
<path fill="#1F1927" opacity="1.000000" stroke="none" 
	d="
M109.087212,60.913998 
	C109.381996,61.729053 109.676788,62.544109 109.937630,63.694664 
	C109.903679,64.030167 109.524788,63.917747 109.332947,63.869854 
	C109.141106,63.821960 109.062943,63.902073 109.098785,63.602062 
	C108.981895,62.639328 108.829155,61.976601 108.779175,61.213970 
	C108.881935,61.114063 109.087212,60.913998 109.087212,60.913998 
z"/>
<path fill="#1F1927" opacity="1.000000" stroke="none" 
	d="
M124.122414,178.338715 
	C124.409821,179.786407 124.419518,181.088150 124.169556,182.221115 
	C123.148445,181.253159 122.386993,180.453964 121.625534,179.654785 
	C122.365257,179.167450 123.104980,178.680115 124.122414,178.338715 
z"/>
<path fill="#091349" opacity="1.000000" stroke="none" 
	d="
M121.625908,179.689331 
	C122.386993,180.453964 123.148445,181.253159 123.901062,182.419769 
	C123.466248,182.903778 123.040276,183.020355 122.276901,183.132034 
	C121.707993,182.626312 121.476486,182.125488 121.400383,181.166489 
	C121.750610,180.418533 121.782478,180.111832 121.651390,179.788208 
	C121.651390,179.788208 121.626282,179.723862 121.625908,179.689331 
z"/>
<path fill="#1F1927" opacity="1.000000" stroke="none" 
	d="
M121.420692,179.915894 
	C121.782478,180.111832 121.750610,180.418533 121.395866,180.887726 
	C121.220634,180.725952 121.205315,180.384766 121.420692,179.915894 
z"/>
<path fill="#D7AC4B" opacity="1.000000" stroke="none" 
	d="
M105.980690,59.998222 
	C105.470360,60.558430 104.960030,61.118637 104.203781,61.828247 
	C103.831383,61.694099 103.654274,61.446812 103.246613,61.093513 
	C103.786087,59.953915 104.505493,58.956581 105.605789,57.972939 
	C105.986679,57.986626 106.010506,58.010677 106.006721,58.341904 
	C105.995522,59.114830 105.988106,59.556526 105.980690,59.998222 
z"/>
<path fill="#D7AC4B" opacity="1.000000" stroke="none" 
	d="
M106.021736,56.866470 
	C106.309471,56.802780 106.580246,57.103939 106.649994,57.710266 
	C106.448967,58.015434 106.010506,58.010677 106.010506,58.010677 
	C106.010506,58.010677 105.986679,57.986626 105.973549,57.973541 
	C105.975204,57.717403 105.989990,57.474358 106.021736,56.866470 
z"/>
<path fill="#7F7353" opacity="1.000000" stroke="none" 
	d="
M81.527794,181.855499 
	C81.301369,181.567871 81.234062,181.106339 81.278984,180.309235 
	C81.489769,180.542984 81.588341,181.112289 81.527794,181.855499 
z"/>
<path fill="#0E173C" opacity="1.000000" stroke="none" 
	d="
M73.597229,178.988449 
	C74.090652,180.160980 74.197395,181.316299 74.145813,182.738159 
	C70.826653,182.219162 71.353264,180.723343 73.597229,178.988449 
z"/>
<path fill="#D5BA7E" opacity="1.000000" stroke="none" 
	d="
M106.006721,58.341904 
	C106.010506,58.010677 106.448967,58.015434 106.668159,58.017494 
	C107.002548,58.143265 107.117737,58.266975 107.438148,58.539879 
	C107.643364,58.689075 107.632050,58.872814 107.731140,59.259979 
	C107.881081,60.103836 107.931931,60.560535 107.982788,61.017231 
	C107.487144,60.753448 106.991493,60.489666 106.238266,60.112053 
	C105.988106,59.556526 105.995522,59.114830 106.006721,58.341904 
z"/>
<path fill="#1F1927" opacity="1.000000" stroke="none" 
	d="
M107.990860,61.010002 
	C107.931931,60.560535 107.881081,60.103836 107.813133,59.301804 
	C108.183083,59.408180 108.570129,59.859901 109.022202,60.612808 
	C109.087212,60.913998 108.881935,61.114063 108.601814,61.148758 
	C108.321693,61.183456 107.982407,61.016930 107.982407,61.016930 
	C107.982407,61.016930 107.998924,61.002773 107.990860,61.010002 
z"/>
<path fill="#D5BA7E" opacity="1.000000" stroke="none" 
	d="
M108.002106,61.358013 
	C107.982407,61.016930 108.321693,61.183456 108.499054,61.248665 
	C108.829155,61.976601 108.981895,62.639328 109.135315,63.644459 
	C108.764603,63.224277 108.393211,62.461685 108.002106,61.358013 
z"/>
</svg>